<?xml version="1.0" encoding="utf-8"?>
<!-- Generator: Adobe Illustrator 25.3.1, SVG Export Plug-In . SVG Version: 6.00 Build 0)  -->
<svg version="1.1" id="Layer_1" xmlns="http://www.w3.org/2000/svg" xmlns:xlink="http://www.w3.org/1999/xlink" x="0px" y="0px"
	 viewBox="0 0 269.84 269.86" style="enable-background:new 0 0 269.84 269.86;" xml:space="preserve">
<g>
	<path d="M134.82,216.08c-46.54,0-84.37-37.83-84.34-84.39c0.03-46.53,37.91-85.5,86.59-84.35c45.37,1.08,82.08,37.95,82.19,84.28
		C219.37,178.3,181.55,216.08,134.82,216.08z M212.53,131.83c0.02-42.81-34.73-77.74-77.36-77.79C92.15,54,57.14,88.72,57.24,131.67
		c0.09,43.98,35.72,77.25,76.86,77.64C176.89,209.72,212.42,175.09,212.53,131.83z"/>
	<path d="M213.74,179.92c13.25-23.44,16.78-48.04,9.44-73.87c-5.77-20.29-17.51-36.63-34.61-48.99
		c-33.12-23.95-77.75-22.89-109.48,1.57C60.48,72.98,48.83,91.77,44.5,114.9c-4.31,23.04,0,44.62,12.02,65.08
		c-1.39-0.34-2.14-1.1-2.98-1.68c-3.62-2.47-7.21-5-10.87-7.41c-1.13-0.74-1.27-1.43-0.42-2.4c3.43-3.91,4.19-8.12,1.93-12.96
		c-0.83-1.78-0.94-3.91-1.32-5.9c-0.27-1.41-0.8-2.49-2.24-3.09c-1.3-0.55-2.44-1.48-3.75-1.97c-1.98-0.74-2.73-2.06-2.85-4.11
		c-0.42-6.81-0.53-13.61,0.14-20.42c0.12-1.25,0.5-2.21,1.77-2.64c5.07-1.72,8.16-4.97,8.55-10.57c0.12-1.71,0.73-3.46,1.48-5.03
		c0.94-1.99,0.62-3.61-0.66-5.22c-0.13-0.16-0.22-0.34-0.33-0.51c-3.01-4.85-3-4.84-0.49-9.92c2.61-5.28,5.65-10.28,9.1-15.05
		c0.68-0.94,1.38-1.39,2.51-1.23c5.2,0.71,9.8,0.05,12.94-4.91c0.94-1.49,2.51-2.66,3.97-3.73c1.62-1.19,2.31-2.68,1.86-4.52
		c-1.26-5.17,1.28-8.02,5.53-10.41c4.7-2.64,9.31-5.44,14.24-7.68c1.18-0.54,2.17-0.58,3.18,0.25c0.1,0.09,0.24,0.13,0.34,0.23
		c4.09,3.81,8.6,3.9,13.52,1.76c1.64-0.71,3.52-0.93,5.31-1.2c1.56-0.24,2.55-0.96,3.19-2.4c0.6-1.35,1.51-2.58,2.04-3.95
		c0.7-1.79,2.04-2.35,3.77-2.49c6.53-0.52,13.06-0.54,19.59-0.01c1.89,0.15,3.37,0.74,4.04,2.71c1.51,4.43,4.31,7.11,9.25,7.56
		c2.36,0.21,4.66,1.29,6.96,2.06c1.19,0.4,2.21,0.32,3.24-0.41c0.88-0.63,1.94-1.02,2.73-1.73c2.3-2.03,4.51-1.88,7.16-0.5
		c5.52,2.86,10.91,5.91,16.01,9.47c1.37,0.96,1.99,1.98,1.72,3.7c-0.72,4.54-0.11,8.53,4.17,11.43c1.96,1.33,3.44,3.41,5,5.27
		c0.89,1.05,1.85,1.43,3.17,1.32c1.14-0.1,2.32,0.09,3.43-0.13c2.86-0.55,4.58,0.64,6.11,3.02c3.46,5.41,6.76,10.88,9.38,16.76
		c0.56,1.25,0.71,2.32-0.24,3.35c-3.84,4.18-4.21,8.75-1.88,13.83c0.74,1.62,1.03,3.51,1.22,5.3c0.17,1.64,0.89,2.61,2.37,3.14
		c0.06,0.02,0.13,0.05,0.18,0.08c6.27,3.25,6.26,3.25,6.54,10.34c0.21,5.4,0,10.78-0.44,16.17c-0.09,1.15-0.55,1.85-1.57,2.35
		c-1.28,0.61-2.44,1.5-3.75,1.98c-2.56,0.94-3.8,2.69-4.19,5.35c-0.45,3.07-1.41,6.04-2.54,8.93c-0.57,1.47-0.46,2.69,0.46,3.98
		c0.98,1.37,1.76,2.87,2.7,4.28c0.5,0.75,0.59,1.38-0.24,1.88C222.26,174.84,218,177.38,213.74,179.92z"/>
	<path d="M134.8,241.03c-11.21,0-22.41-0.03-33.62,0.01c-6.29,0.02-11.03-4.03-11.22-9.75c-0.21-6.55,4.07-11.2,10.66-11.45
		c2.97-0.11,5.94-0.03,8.91-0.03c19.58,0,39.15-0.01,58.73,0.01c6.59,0.01,11.03,3.88,11.57,10c0.5,5.67-4,10.91-9.59,11.19
		c-0.47,0.02-0.94,0.01-1.42,0.01C157.48,241.03,146.14,241.03,134.8,241.03z M97.83,230.85c0.81,1.12,1.58,2.18,2.36,3.23
		c0.49,0.66,1.13,0.95,1.94,0.73c0.85-0.23,0.86-0.94,0.87-1.62c0.01-2.23-0.01-4.45,0-6.68c0.01-1-0.43-1.5-1.46-1.47
		c-1.01,0.03-1.16,0.67-1.24,1.49c-0.07,0.75,0.31,1.6-0.48,2.38c-0.78-1.08-1.54-2.1-2.27-3.14c-0.5-0.72-1.2-0.82-1.97-0.7
		c-0.9,0.14-0.92,0.87-0.93,1.55c-0.01,2.16-0.02,4.32,0,6.47c0.01,0.94,0.17,1.8,1.41,1.76c1.28-0.05,1.23-0.98,1.28-1.88
		C97.39,232.34,97.13,231.63,97.83,230.85z M120.36,229.83c0.01,0,0.02,0,0.03,0c0,1.28-0.02,2.56,0.01,3.83
		c0.01,0.66,0.23,1.19,1.04,1.2c0.8,0.02,1.29-0.3,1.39-1.12c0.04-0.33,0.02-0.67,0.05-1.01c0.04-0.45-0.04-0.99,0.6-1.11
		c0.55-0.1,0.87,0.18,1.11,0.65c0.33,0.66,0.65,1.33,1.06,1.94c0.54,0.8,1.41,0.88,2.16,0.51c0.88-0.44,0.37-1.24,0.05-1.74
		c-0.7-1.11-0.52-1.96,0.15-3.09c1.39-2.31,0.02-4.79-2.69-4.83c-6.01-0.09-4.81-0.74-4.96,4.56
		C120.36,229.7,120.36,229.76,120.36,229.83z M175.43,232.09c0-1.08,0.08-1.76-0.02-2.42c-0.19-1.28-0.99-2.07-2.27-2.21
		c-1.28-0.13-3.52-0.03-3.41,0.83c0.23,1.82-1.08,3.17-0.81,4.81c0.11,0.69,0.57,1.26,1.21,1.54c1.56,0.68,3.26,0.49,4.72-0.01
		C176.01,234.23,175.31,232.7,175.43,232.09z M153.11,227.92c-0.04-0.27-0.07-0.6-0.13-0.92c-0.13-0.72,0.32-1.87-0.94-1.85
		c-1.08,0.02-1.6,0.79-1.57,1.94c0.05,2.09,0.02,4.18,0.03,6.27c0,0.79,0.1,1.52,1.16,1.51c0.97-0.01,1.27-0.59,1.32-1.44
		c0.02-0.31,0.1-0.62,0.19-1.17c0.32,0.38,0.53,0.55,0.63,0.77c0.54,1.17,1.36,2.47,2.69,1.66c1.34-0.81-0.27-1.81-0.5-2.74
		c-0.22-0.9-1.36-1.65-0.4-2.75c0.34-0.38,0.99-0.8,0.59-1.35c-0.45-0.64-1.22-0.35-1.86-0.2
		C153.95,227.75,153.66,228.15,153.11,227.92z M160.85,227.43c-1.78-0.01-3.13,1.07-3.43,2.76c-0.39,2.17,0.53,4.14,2.24,4.64
		c1.21,0.35,2.36,0.19,3.41-0.64c0.8-0.63-0.45-1.46,0.25-1.97c1.33-0.97,0.85-2.15,0.34-3.22
		C163.14,227.87,162.12,227.36,160.85,227.43z M143.37,231.24c0-0.61,0.02-1.21,0-1.82c-0.03-0.84,0.19-1.86-1.17-1.9
		c-1.34-0.04-1.26,0.91-1.27,1.8c-0.01,0.61,0,1.21-0.01,1.82c-0.01,0.57-0.09,1.12-0.8,1.18c-0.78,0.07-0.82-0.57-0.87-1.09
		c-0.06-0.74-0.04-1.48-0.07-2.22c-0.03-0.81-0.22-1.48-1.23-1.5c-0.98-0.02-1.29,0.59-1.3,1.43c0,1.21,0.01,2.42,0.07,3.63
		c0.06,1.13,0.72,1.87,1.75,2.24c3.04,1.09,4.89-0.2,4.89-3.38C143.37,231.38,143.37,231.31,143.37,231.24z M128.89,231.29
		c0.03,2.26,1.36,3.7,3.4,3.68c1.99-0.02,3.35-1.55,3.34-3.76c0-2.31-1.44-3.85-3.54-3.78C130.08,227.5,128.86,228.97,128.89,231.29
		z M111.86,225.03c0,0.01,0,0.01,0,0.02c-0.94,0-1.89-0.01-2.83,0c-0.62,0.01-1.03,0.29-1.06,0.96c-0.02,0.62,0,1.42,0.77,1.41
		c2.04-0.03,1.78,1.34,1.78,2.62c0,1.15-0.01,2.29,0.04,3.44c0.03,0.73,0.27,1.33,1.16,1.37c0.99,0.05,1.3-0.57,1.32-1.4
		c0.04-1.28,0.05-2.56,0.03-3.84c-0.02-1.14-0.05-2.21,1.61-2.12c0.93,0.05,1.03-0.7,1.01-1.42c-0.02-0.76-0.48-1.05-1.2-1.04
		C113.61,225.04,112.74,225.03,111.86,225.03z M106.99,229.93c0-1.14-0.02-2.29,0.01-3.43c0.02-0.86-0.22-1.43-1.22-1.45
		c-0.98-0.03-1.31,0.5-1.31,1.37c0,2.36,0,4.71,0.01,7.07c0.01,0.85,0.34,1.42,1.32,1.38c1.01-0.04,1.2-0.67,1.19-1.5
		C106.98,232.22,106.99,231.07,106.99,229.93z M144.89,231.08c0,0.2-0.05,0.42,0.01,0.6c0.34,1.07-0.9,2.99,1.1,3.09
		c2.25,0.11,1.16-1.94,1.35-3.07c0.15-0.95-0.05-1.97,1.43-1.83c0.71,0.07,0.94-0.44,1.02-1c0.1-0.7-0.31-1.13-0.95-1.35
		c-2.44-0.86-3.95,0.19-3.95,2.75C144.89,230.54,144.89,230.81,144.89,231.08z M167.75,229.95c0.01,0,0.01,0,0.02,0
		c0-1.07,0.07-2.16-0.03-3.22c-0.06-0.61,0.43-1.7-0.79-1.65c-0.91,0.04-1.67,0.55-1.67,1.65c0,2.28,0,4.57,0.02,6.85
		c0.01,0.78,0.36,1.28,1.22,1.27c0.84-0.01,1.21-0.49,1.23-1.27C167.76,232.37,167.75,231.16,167.75,229.95z"/>
	<path d="M180.75,214.82c-0.02-3.92,2.95-7,6.8-7.05c3.87-0.05,7.12,3.12,7.17,7c0.05,3.74-3.14,6.99-6.91,7.04
		C183.81,221.85,180.77,218.84,180.75,214.82z"/>
	<path d="M82.17,207.77c3.82,0.04,6.92,3.16,6.94,7.01c0.02,3.92-3.14,7.06-7.1,7.03c-3.91-0.03-7.05-3.28-6.94-7.19
		C75.18,210.8,78.36,207.73,82.17,207.77z"/>
	<path d="M82.05,127.57c-0.68-27.41,21.87-53.09,52.86-53.05c30.09,0.04,52.96,24.24,52.98,53.08
		c0.02,29.67-24.75,53.59-54.33,52.92C105.5,179.89,81.39,156.12,82.05,127.57z M109.06,128.38c-6.82,0-13.64-0.04-20.46,0.01
		c-4.92,0.04-5.25-0.98-4.56,4.95c1.08,9.3,4.36,17.67,10.02,25.04c9.49,12.36,22.16,18.97,37.64,20.35
		c2.03,0.18,2.38-0.75,2.38-2.47c-0.04-15.12-0.05-30.24,0.01-45.36c0.01-1.94-0.61-2.58-2.55-2.56
		C124.05,128.43,116.56,128.38,109.06,128.38z M160.88,126.63c7.42,0,14.85,0,22.27,0c3,0,3.05-0.01,2.78-3.06
		c-1.27-14.27-7.36-26.09-18.27-35.34c-8.33-7.07-18.09-10.82-28.93-11.82c-2.83-0.26-2.96-0.11-2.96,2.76c0,14.92,0,29.83,0,44.75
		c0,2.7,0.01,2.71,2.62,2.71C145.9,126.63,153.39,126.63,160.88,126.63z M160.47,145.5c-2.38-0.3-4.75-0.22-7.14-0.1
		c-3.97,0.2-7.95,0.2-11.93,0.3c-0.9,0.02-1.43-0.35-1.5-1.25c-0.09-1.16,0.84-0.86,1.41-0.86c10.32-0.02,20.65,0,30.97-0.03
		c1.3,0,1.42,0.47,1.09,1.58c-0.89,3.04-1.75,6.09-2.51,9.16c-0.36,1.45-0.79,2.53-2.61,2.25c-0.89-0.14-1.43,0.12-0.95,1.26
		c0.72,1.73,0.46,3.3-1.18,4.45c-0.29,0.2-0.61,0.39-0.54,0.77c0.08,0.41,0.48,0.4,0.81,0.42c2.94,0.18,5.43,0.02,7.63-2.77
		c6.96-8.78,11.12-18.56,11.94-29.74c0.1-1.3,0.28-2.57-1.78-2.57c-15.52,0.05-31.04,0.04-46.56,0.01c-1.4,0-1.88,0.54-1.88,1.92
		c0.03,15.52,0.03,31.04,0,46.56c0,1.54,0.61,2.1,2.07,1.87c2.26-0.36,4.54-0.5,6.8-0.94c9.16-1.78,17.19-5.8,24.17-11.94
		c0.45-0.39,1.38-0.69,0.97-1.55c-0.31-0.65-1.09-0.4-1.66-0.4c-6.27-0.01-12.55,0-18.82,0.01c-3.37,0-6.74,0-10.1,0
		c1.27-0.47,2.53-0.45,3.8-0.48c0.45-0.01,1.04,0.19,1.28-0.33c0.28-0.61-0.4-0.73-0.71-1.03c-1.64-1.6-1.79-2.87-0.43-4.81
		c0.53-0.75,0.64-1.39,0.33-2.23c-0.78-2.15-1.48-4.33-2.23-6.5c-0.35-0.99-0.18-1.52,1.01-1.57c2.29-0.09,4.58-0.24,6.86-0.4
		C152.89,146.3,156.74,146.52,160.47,145.5z M110.3,105.51c0.55-1.53,0.24-2.88,0.18-4.2c-0.06-1.35,0.32-1.99,1.8-1.9
		c1.48,0.09,2.97-0.04,4.45-0.05c4.11-0.01,8.23,0,11.95,0c-1.36,0.72-3.39,0.2-5.23,0.76c0.28,0.2,0.54,0.28,0.8,0.28
		c3.27-0.05,3.02,0.11,2.75,3.02c-0.07,0.77-0.38,1.77,0.66,2.1c1.5,0.47,1.64,1.59,1.69,2.86c0.05,1.41,0.22,2.83,0.19,4.24
		c-0.02,0.77,0.59,1.95-0.68,2.23c-1.16,0.26-2.22,0.25-3.12-1.08c-2.75-4.07-8.47-3.58-10.74,0.8c-0.32,0.61-0.53,1.17-1.33,1.35
		c-3.56,0.82-6.78-0.34-9.52-2.26c-1.82-1.28-3.45-2.22-5.66-2.1c-1.07,0.06-2.14,0.01-3.49,0.01c1.12-1.72,0.15-2.55-0.92-3.49
		c-1.36-1.19-3.22-2.05-3.15-4.38c0.02-0.79-0.61-1.06-1.16-0.22c-0.37,0.56-0.69,1.16-0.99,1.76c-2.93,5.94-4.42,12.27-5.05,18.83
		c-0.22,2.26,0.08,2.57,2.38,2.57c15.12,0,30.23-0.04,45.35,0.05c2.09,0.01,2.65-0.67,2.63-2.67c-0.08-10.06-0.03-20.11-0.03-30.17
		c0-5.13-0.04-10.26,0.02-15.39c0.02-1.58-0.55-2.21-2.14-2.1c-1.82,0.14-3.61,0.39-5.41,0.7c-14.52,2.5-25.86,9.93-34.19,22.04
		c-0.3,0.43-0.82,0.86-0.59,1.43c0.3,0.72,1.04,0.5,1.61,0.49c4.59-0.04,9.18-0.04,13.76-0.21c1.89-0.07,2.77,0.46,2.61,2.45
		C109.69,103.93,109.49,104.73,110.3,105.51z M155.08,163.43c2.23,0,4.46,0.01,6.68-0.01c0.38,0,0.88,0.13,1.09-0.3
		c0.24-0.49-0.23-0.69-0.54-0.93c-1.48-1.15-1.84-2.65-1.1-4.32c0.57-1.3-0.16-1.36-1.09-1.36c-3.44,0-6.89,0-10.33,0
		c-0.96,0-1.64,0.09-1.06,1.37c0.73,1.59,0.41,3.03-0.93,4.2c-0.3,0.26-0.78,0.49-0.65,0.93c0.18,0.57,0.78,0.41,1.23,0.42
		C150.63,163.44,152.86,163.43,155.08,163.43z M143.11,159.23c-0.03,1.79,1.15,3.05,2.63,2.98c1.57-0.08,2.45-1.04,2.62-2.55
		c0.16-1.37-1.22-2.71-2.69-2.66C144.1,157.06,143.25,157.94,143.11,159.23z M166.9,159.51c-0.04-1.45-1.33-2.62-2.83-2.49
		c-1.59,0.13-2.46,1.1-2.4,2.65c0.05,1.56,1.04,2.44,2.58,2.55C165.67,162.31,166.95,160.93,166.9,159.51z"/>
	<path d="M194.6,114.19c1.17-0.26,2.11,0.44,3.11,0.74c1.75,0.53,3.42,1.11,5.3,0.47c0.65-0.22,1.65-0.52,1.93,0.74
		c0.27,1.22-0.46,1.65-1.42,1.69c-2.86,0.14-4.48,2.27-6.44,3.87c-0.63,0.51-0.23,0.76,0.05,1.38c1.43,3.12,4.09,1.55,6.24,1.91
		c0.95,0.16,2.59-0.89,2.72,0.98c0.15,2.14-1.71,1.12-2.69,1.3c-1.58,0.29-3.54-0.2-4.73,0.58c-1.38,0.89-0.36,3.02-0.69,4.57
		c-0.07,0.33-0.13,0.66-0.16,1c-0.08,0.84-0.17,1.7,1.03,1.77c1.04,0.06,1.19-0.65,1.23-1.46c0.02-0.47,0.04-0.95,0.12-1.41
		c0.08-0.48,0.45-0.66,0.89-0.6c0.36,0.05,0.61,0.29,0.64,0.67c0.02,0.34,0.01,0.67,0,1.01c-0.03,0.96-0.13,2.08,1.22,2.11
		c1.47,0.03,1.05-1.27,1.22-2.11c0.08-0.39,0.05-0.81,0.07-1.21c0.04-0.7,0.31-1.17,1.11-1.12c0.74,0.04,0.8,0.56,0.84,1.14
		c0.1,1.77-0.29,3.49-0.5,5.23c-0.08,0.7-0.56,0.87-1.16,0.82c-2.55-0.21-5.1-0.43-7.65-0.64c-0.9-0.08-1.04-0.63-0.96-1.42
		c0.46-5.18,0.51-10.35-0.19-15.52c-0.18-1.33,0.99-1.68,1.71-2.27c1.12-0.92,1.02-1.4-0.32-1.86
		C195.94,116.15,194.45,116.05,194.6,114.19z"/>
	<path d="M71.49,122.05c-1.54-0.65-3.08-1.27-4.6-1.96c-0.63-0.29-1.63-0.35-1.52-1.34c0.12-1.08,1.14-0.96,1.91-1.09
		c1.71-0.3,3.49-0.2,5.41-0.96c-1.69-0.86-3.28-0.88-4.85-1.07c-0.76-0.1-1.87-0.03-1.74-1.19c0.15-1.27,1.26-0.71,1.96-0.62
		c2,0.25,3.99,0.63,5.99,0.91c0.92,0.13,1.78,0.19,1.62,1.49c-0.15,1.13-0.01,2.4-1.67,2.52c-0.81,0.06-1.61,0.15-2.41,0.27
		c-0.49,0.08-1.24-0.13-1.29,0.61c-0.05,0.65,0.66,0.77,1.14,0.98c0.74,0.33,1.5,0.62,2.25,0.91c0.73,0.28,0.94,0.78,0.94,1.58
		c0.01,1.71-0.38,2.69-2.43,2.25c-1.9-0.41-3.88-0.49-5.8-0.85c-0.72-0.14-1.99,0.09-1.75-1.36c0.23-1.46,1.37-1.02,2.24-0.94
		C68.37,122.32,69.85,122.81,71.49,122.05z"/>
	<path d="M153.78,187.8c2.55,0.02,4.15,1.77,3.23,3.38c-0.99,1.74-0.26,2.67,0.67,3.87c0.33,0.42,1.37,0.99,0.5,1.58
		c-0.67,0.46-1.72,0.98-2.53-0.06c-0.54-0.69-1.06-1.39-1.63-2.05c-0.31-0.37-0.73-0.63-1.24-0.34c-0.49,0.29-0.51,0.75-0.39,1.24
		c0.14,0.59,0.31,1.17,0.46,1.75c0.2,0.74-0.1,1.12-0.82,1.33c-0.75,0.22-1.37,0.17-1.61-0.67c-0.73-2.51-1.43-5.03-2.13-7.56
		c-0.17-0.61,0.05-1.07,0.71-1.21C150.76,188.66,152.41,187.81,153.78,187.8z M154.55,190.95c-0.14-0.87-0.65-1.43-1.47-1.33
		c-0.78,0.1-1.89,0.07-1.87,1.32c0.01,0.75,0.24,1.54,1.23,1.49C153.41,192.39,154.24,192.01,154.55,190.95z"/>
	<path d="M71.08,134.62c-2.11-0.35-3.52,0.33-4.97,0.31c-0.66-0.01-1.45,0.19-1.55-0.82c-0.08-0.91,0.58-1.14,1.3-1.22
		c2.28-0.24,4.55-0.47,6.84-0.64c0.61-0.05,1.47-0.32,1.68,0.63c0.2,0.86,0.24,1.71-0.65,2.36c-1.4,1.03-2.73,2.15-4.3,3.41
		c1.62,0.63,2.85-0.33,4.14-0.15c0.65,0.09,1.45-0.16,1.49,0.87c0.04,0.93-0.64,1.06-1.35,1.14c-2.28,0.24-4.55,0.5-6.83,0.72
		c-0.67,0.07-1.37,0.11-1.62-0.79c-0.21-0.76,0.07-1.3,0.65-1.75C67.5,137.44,69.08,136.19,71.08,134.62z"/>
	<path d="M165.76,186.52c0.43,1.97,1.38,3.12,2.07,4.38c0.33,0.6,0.71,1.22-0.15,1.72c-0.86,0.5-1.22-0.13-1.57-0.72
		c-1.14-1.98-2.28-3.96-3.39-5.96c-0.29-0.53-1.02-1.12-0.19-1.74c0.68-0.51,1.37-1.12,2.36-0.56c1.56,0.87,3.15,1.68,5.1,2.72
		c-0.42-1.76-1.36-2.74-1.93-3.89c-0.35-0.71-0.45-1.25,0.31-1.7c0.84-0.5,1.06,0.22,1.35,0.71c1.2,2.02,2.39,4.06,3.54,6.1
		c0.31,0.55,0.87,1.17,0.09,1.78c-0.63,0.5-1.3,0.58-2.05,0.15C169.62,188.56,167.9,187.67,165.76,186.52z"/>
	<path d="M126.01,195.39c1.08-1.48,0.75-2.84,1.06-4.05c0.16-0.63,0.36-1.19,1.18-1.08c0.87,0.12,0.85,0.78,0.76,1.38
		c-0.38,2.46-0.81,4.92-1.21,7.38c-0.1,0.59-0.32,1.06-1,1.03c-0.79-0.04-1.38-0.36-1.69-1.19c-0.74-1.94-1.55-3.86-2.72-5.83
		c-0.26,1.44-0.51,2.88-0.8,4.31c-0.15,0.73-0.03,1.85-1.27,1.63c-1.25-0.22-0.73-1.27-0.63-1.98c0.28-2,0.65-3.99,1-5.97
		c0.13-0.74-0.15-1.85,1.04-1.86c1.01-0.01,1.94,0.29,2.34,1.52C124.56,192.17,125.27,193.61,126.01,195.39z"/>
	<path d="M199.4,158.83c-0.04,2.66-2.05,4.61-4.65,4.52c-2.99-0.1-5.56-2.51-5.48-5.12c0.09-2.65,2.11-4.6,4.69-4.52
		C197,153.81,199.45,156.11,199.4,158.83z M195.76,160.86c1.07,0,1.74-0.59,1.74-1.54c0-1.21-2.77-3.24-4.47-3.21
		c-0.98,0.02-1.67,0.48-1.68,1.59C191.33,159.04,193.87,160.86,195.76,160.86z"/>
	<path d="M98.5,183.1c-1.25,1.2-1.9,2.62-2.74,3.89c-0.41,0.62-0.75,0.86-1.45,0.4c-0.72-0.47-0.57-0.94-0.2-1.52
		c1.29-1.97,2.57-3.94,3.85-5.93c0.37-0.57,0.67-1.27,1.53-0.96c0.8,0.29,1.39,0.82,1.39,1.78c0,1.48,0,2.96,0.02,4.45
		c0.01,0.37-0.13,0.89,0.45,0.95c0.38,0.04,0.54-0.33,0.71-0.62c0.4-0.7,0.79-1.41,1.25-2.07c0.43-0.61,0.74-1.62,1.83-0.85
		c0.98,0.69,0.22,1.32-0.14,1.88c-1.19,1.88-2.43,3.72-3.64,5.58c-0.33,0.51-0.63,1.14-1.38,0.9c-0.66-0.22-1.21-0.67-1.23-1.44
		c-0.02-1.34,0.01-2.69,0.03-4.04C98.8,184.77,99.09,184.04,98.5,183.1z"/>
	<path d="M74.23,149.8c-1.81,0.08-3.02,0.88-4.35,1.25c-0.73,0.2-1.58,0.93-2.05-0.25c-0.47-1.19,0.61-1.26,1.33-1.53
		c1.89-0.7,3.77-1.46,5.7-2.05c0.62-0.19,1.38-1.24,2.07-0.05c0.56,0.96,0.63,1.87-0.13,2.8c-1.01,1.23-1.95,2.53-3.14,4.1
		c1.71,0.01,2.77-0.76,3.94-1.11c0.7-0.21,1.29-0.42,1.66,0.48c0.41,1.01-0.38,1.14-0.99,1.36c-2.15,0.79-4.3,1.57-6.46,2.34
		c-0.62,0.22-1.26,0.61-1.79-0.21c-0.48-0.75-0.31-1.38,0.21-2.03C71.5,153.29,72.76,151.67,74.23,149.8z"/>
	<path d="M109.33,184.99c2.04,0,4.02,1.29,4.39,2.92c0.12,0.53,0.51,1.32-0.35,1.54c-0.61,0.16-1.43,0.13-1.66-0.73
		c-0.3-1.07-0.76-2-2.03-1.79c-1.39,0.22-1.84,1.48-2.31,2.59c-0.43,1.01-0.74,2.1,0.06,3.06c0.6,0.72,1.49,0.76,2.2,0.29
		c0.77-0.51,0.21-0.99-0.28-1.42c-0.37-0.33-0.24-0.74,0.02-1.09c0.25-0.34,0.62-0.27,0.92-0.13c0.93,0.46,2.52,0.48,2.56,1.61
		c0.05,1.44-0.96,2.75-1.69,4.04c-0.05,0.1-0.49,0.11-0.51,0.07c-0.63-1.6-2.1-0.7-3.13-1.06c-2.25-0.77-3.45-2.69-3.04-5.05
		C104.96,187.01,106.97,184.99,109.33,184.99z"/>
	<path d="M178.39,180.98c-0.52,0.23-0.94,0.11-1.16-0.42c-0.19-0.47,0.13-0.81,0.46-1c0.84-0.49,1.46-1.95,2.42-1.45
		c1.27,0.66,2.09,2.05,2.78,3.37c0.05,0.09-0.04,0.37-0.06,0.37c-2,0.01-1.75,2.34-3.11,3.01c-0.3,0.15-0.57,0.37-0.88,0.49
		c-2.73,1.07-5.76-0.85-6.83-4.31c-0.67-2.15,1.09-4.83,3.61-5.45c0.38-0.09,0.82-0.16,1.19-0.07c0.61,0.15,1.6,0.2,1.45,1.03
		c-0.13,0.71-0.73,1.54-1.76,1.22c-0.92-0.29-1.6-0.07-2.1,0.69c-0.53,0.81-0.13,1.55,0.28,2.26c0.5,0.89,1.1,1.7,1.97,2.27
		c0.82,0.53,1.64,0.57,2.43-0.06c0.52-0.42,0.74-0.99,0.49-1.62C179.36,180.7,178.86,180.82,178.39,180.98z"/>
	<path d="M78.7,157.2c2.92,0,5.25,3.06,4.28,5.68c-0.21,0.56-0.36,1.55-1.27,1.14c-0.61-0.28-1.24-1-0.8-1.83
		c0.49-0.91,0.49-1.63-0.3-2.33c-0.82-0.72-1.63-0.33-2.46-0.03c-0.96,0.35-1.85,0.83-2.5,1.64c-0.75,0.92-0.73,1.85,0.13,2.7
		c0.35,0.35,0.79,0.55,1.28,0.36c0.47-0.18,0.48-0.6,0.4-1.02c-0.1-0.48-0.22-0.95,0.4-1.18c0.74-0.27,0.97,0.33,1.19,0.78
		c0.38,0.8,1.56,1.6,0.87,2.46c-0.92,1.13-2.41,1.65-3.78,2.19c-0.11,0.04-0.48-0.23-0.47-0.26c0.57-1.7-1.13-1.86-1.81-2.69
		c-1.27-1.56-1.24-4.03,0.19-5.56C75.29,157.93,76.84,157.2,78.7,157.2z"/>
	<path d="M194.28,167.57c0,1.81-1.74,4.3-3.44,4.86c-0.62,0.2-1.51,0.6-1.82-0.11c-0.33-0.75,0.19-1.61,1.01-1.89
		c0.74-0.25,1.33-0.56,1.79-1.2c0.39-0.55,0.61-1.11,0.06-1.62c-0.48-0.45-1.01-0.22-1.46,0.13c-0.68,0.55-1.31,1.16-2.03,1.66
		c-1.01,0.71-2.1,0.9-3.2,0.17c-1.03-0.68-1.28-1.72-1.14-2.84c0.24-1.88,1.26-3.23,3.01-3.98c0.48-0.21,1.06-0.56,1.39,0.14
		c0.27,0.55-0.06,1.07-0.49,1.42c-0.41,0.34-0.97,0.51-1.34,0.88c-0.45,0.46-1.01,1.03-0.37,1.73c0.56,0.61,1.11,0.23,1.6-0.15
		c0.69-0.54,1.33-1.14,2.03-1.66c0.9-0.65,1.92-0.7,2.87-0.2C193.77,165.45,194.27,166.4,194.28,167.57z"/>
	<path d="M139.81,191.5c-0.09-0.66,0.26-1.15,1.21-1.25c1.54-0.17,3.06-0.4,4.6-0.6c0.65-0.08,1.25-0.01,1.33,0.82
		c0.07,0.73-0.5,0.89-1.04,0.98c-0.73,0.12-1.47,0.18-2.2,0.28c-0.79,0.11-1.22,0.56-1.11,1.38c0.1,0.78,0.69,0.78,1.33,0.88
		c0.87,0.13,2.28-1.14,2.51,0.42c0.23,1.5-1.44,0.93-2.27,1.18c-0.76,0.23-1.24,0.49-1.13,1.34c0.12,0.95,0.7,1.21,1.57,1.06
		c0.79-0.14,1.58-0.28,2.38-0.38c0.74-0.08,0.86,0.48,0.94,1.03c0.09,0.62-0.28,0.83-0.81,0.9c-1.66,0.21-3.33,0.43-4.99,0.65
		c-0.93,0.12-1.37-0.36-1.49-1.23c-0.03-0.2-0.05-0.4-0.08-0.6C140.32,196.14,140.08,193.94,139.81,191.5z"/>
	<path d="M97.69,177.75c-0.39,0.7-0.75,1.32-1.57,0.7c-0.7-0.52-1.35-1.11-2.01-1.69c-0.54-0.47-1.06-0.55-1.6-0.02
		c-0.55,0.55-0.33,1,0.06,1.59c0.5,0.75,2.28,1.13,1.37,2.24c-0.95,1.15-1.65-0.47-2.4-0.95c-0.69-0.43-1.19-0.48-1.77,0.12
		c-0.62,0.65-0.49,1.16,0.14,1.69c0.66,0.57,1.29,1.19,1.94,1.77c0.46,0.41,0.4,0.8,0.01,1.21c-0.38,0.41-0.76,0.51-1.22,0.1
		c-1.36-1.21-2.73-2.4-4.08-3.62c-0.64-0.58-0.2-1.1,0.2-1.56c1.6-1.82,3.21-3.63,4.83-5.44c0.49-0.55,0.98-0.91,1.69-0.26
		c1.24,1.14,2.52,2.23,3.77,3.36C97.32,177.21,97.5,177.5,97.69,177.75z"/>
	<path d="M130.91,195.36c0.02-0.2,0.02-0.4,0.05-0.6c0.24-1.34-0.77-3.3,0.51-3.94c1.76-0.88,3.95-0.28,5.96-0.22
		c0.56,0.02,0.81,0.41,0.79,0.96c-0.02,0.65-0.49,0.73-0.99,0.74c-0.81,0.02-1.61,0.02-2.42,0.02c-0.66,0-1.22,0.14-1.24,0.96
		c-0.02,0.75,0.4,1.02,1.1,1.17c0.89,0.19,2.48-0.37,2.47,0.95c-0.01,1.48-1.59,0.65-2.45,0.8c-0.84,0.15-1.18,0.5-1.17,1.31
		c0.01,0.77,0.46,1.06,1.16,1.08c0.81,0.03,1.61,0.04,2.42,0.08c0.49,0.03,0.94,0.14,0.95,0.78c0.01,0.58-0.3,0.91-0.84,0.91
		c-1.81,0-3.63-0.03-5.44-0.1c-0.78-0.03-0.95-0.61-0.94-1.28c0.01-1.21,0-2.42,0-3.63C130.86,195.36,130.89,195.36,130.91,195.36z"
		/>
	<path d="M203.37,148.59c0,2.18-1.19,3.9-2.89,4.4c-2.36,0.7-5.52-0.44-6.77-2.46c-0.87-1.4-0.59-3.67,0.61-5.08
		c0.55-0.64,1.25-1.02,2.07-1.15c0.5-0.08,1.22-0.3,1.33,0.44c0.08,0.59,0.2,1.43-0.75,1.61c-1.02,0.19-1.86,0.6-1.82,1.77
		c0.04,1.22,1.06,1.65,2.02,1.98c0.82,0.29,1.68,0.56,2.53,0.59c1.37,0.06,2.08-1.03,1.6-2.3c-0.07-0.18-0.2-0.35-0.32-0.51
		c-0.61-0.8-0.46-1.67,0.27-2.11c0.74-0.44,1.11,0.49,1.52,0.95C203.29,147.31,203.42,148.04,203.37,148.59z"/>
	<path d="M74.27,93.46c3.26,4.01,3.27,7.45,0.05,11.81C70.99,100.86,70.98,98.4,74.27,93.46z"/>
	<path d="M194.2,93.51c3.15,4.66,3.14,7.48-0.04,11.67C190.75,101.21,190.76,97.58,194.2,93.51z"/>
	<path d="M76.03,143.6c0.21,1.08-0.58,1.25-1.18,1.4c-2.34,0.59-4.71,1.07-7.04,1.67c-0.92,0.24-1.23-0.17-1.41-0.92
		c-0.18-0.71-0.19-1.37,0.71-1.58c2.54-0.6,5.09-1.17,7.64-1.77C75.92,142.12,75.83,143.06,76.03,143.6z"/>
	<path d="M118.96,189.38c-0.73,2.41-1.57,5.16-2.42,7.91c-0.2,0.64-0.67,0.53-1.14,0.32c-0.59-0.27-1.39-0.4-1.11-1.35
		c0.75-2.57,1.51-5.13,2.27-7.7c0.24-0.8,0.83-0.74,1.46-0.62C118.61,188.06,119.02,188.34,118.96,189.38z"/>
	<path d="M159.55,185.52c0.74-0.1,0.95,0.5,1.19,1.06c0.89,2.09,1.77,4.2,2.67,6.28c0.37,0.85,0.36,1.51-0.59,1.99
		c-1.09,0.55-1.45-0.15-1.78-0.93c-0.93-2.15-1.82-4.32-2.78-6.46C157.65,186.13,158.53,185.83,159.55,185.52z"/>
	<path d="M196.52,139.64c2.5,0.47,5.01,0.92,7.51,1.43c0.8,0.16,1.02,0.74,0.87,1.53c-0.17,0.87-0.71,1.06-1.48,0.92
		c-2.44-0.44-4.89-0.86-7.33-1.31c-0.79-0.15-1.14-0.63-0.94-1.46C195.33,140.03,195.62,139.47,196.52,139.64z"/>
	<path d="M69.31,129.91c-1.21,0-2.41-0.01-3.62,0c-0.71,0.01-1.15-0.23-1.17-1.03c-0.02-0.78,0.19-1.34,1.08-1.34
		c2.55-0.01,5.09-0.01,7.64-0.01c0.83,0,1.17,0.43,1.17,1.27c0.01,0.95-0.54,1.11-1.29,1.1C71.85,129.91,70.58,129.91,69.31,129.91z
		"/>
	<path d="M124.39,227.54c0.59,0.03,1.32-0.03,1.25,0.85c-0.08,1.03-0.95,0.68-1.54,0.72c-0.51,0.03-1.15,0.1-1.15-0.7
		C122.96,227.37,123.77,227.59,124.39,227.54z"/>
	<path d="M133.1,231.14c-0.06,0.51-0.06,1.12-0.74,1.22c-0.74,0.11-0.88-0.47-0.9-1.03c-0.02-0.6-0.01-1.32,0.8-1.36
		C132.95,229.94,133.02,230.58,133.1,231.14z"/>
	<path d="M112.55,163.75c-2.44-6.1-4.88-12.21-7.32-18.31c-1.81-4.52-1.82-4.54-6.21-2.39c-1.72,0.84-3.39,1.79-5.49,2.9
		c7.04-8.36,17.82-10.12,25.61-6.85c-0.42,0.52-0.98,0.31-1.44,0.3c-3.11-0.04-6.2,0.24-9.27,0.66c-1.42,0.19-2.23,0.59-1.65,2.35
		c1.48,4.46,2.72,9,4.18,13.48C111.77,158.36,112.57,160.97,112.55,163.75z"/>
	<path d="M113.96,143.78c4.98,0.01,8.17,2.33,9.94,7.25c-1.24-1.31-2.26-2.37-3.28-3.44c-0.86-0.91-1.55-0.76-2.3,0.2
		c-1.63,2.05-3.33,4.03-5.3,5.83c1.25-1.8,2.49-3.6,3.74-5.39c1.69-2.42,1.63-2.64-1.17-3.8
		C115.17,144.24,114.73,144.08,113.96,143.78z"/>
	<path d="M163.13,92.9c-0.77,0.41-1.53,0.84-2.31,1.22c-3.29,1.62-4.33,3.9-3.84,7.48c0.77,5.66,1.36,11.34,1.99,17.01
		c0.06,0.5,0.26,1.16-0.24,1.51c-0.49,0.35-0.82-0.23-1.2-0.47c-1.4-0.88-2.32-2.87-4.06-2.74c-1.57,0.12-2.49,1.92-3.81,2.83
		c-0.27,0.19-0.49,0.48-1.18,0.26c0.4-2.64,0.79-5.34,1.23-8.03c0.64-3.85,1.33-7.69,1.97-11.54c0.25-1.49-0.35-1.88-1.7-1.21
		c-1.39,0.69-2.75,1.45-4.19,2.01c-1.65,0.65-2.82,1.47-2.57,3.51c0.15,1.23-0.87,1.19-1.67,1.11c-0.83-0.08-2.04,0.51-2.19-1.02
		c-0.04-0.4-0.04-0.81-0.03-1.21c0.04-1.27-0.28-2.75,0.26-3.77c0.61-1.16,2.25-0.25,3.38-0.6c2.44-0.75,4.87-1.56,7.29-2.37
		c0.73-0.24,0.86-0.92,1.13-1.56c0.89-2.1,2.63-2.72,4.57-1.5c0.92,0.58,1.73,0.61,2.66,0.32c0.77-0.24,1.54-0.5,2.3-0.75
		c0.69-0.23,1.38-0.48,2.08-0.71C163.05,92.77,163.09,92.83,163.13,92.9z M156.75,112.18c-0.52-0.92-1.36-1.66-2.51-1.92
		c-0.65-0.14-3.26,2.1-3.09,2.61c0.38,1.15,1.32,1.84,2.46,2.11C154.22,115.14,156.72,112.89,156.75,112.18z M158.06,117.08
		c-0.56-0.95,0.34-2.72-1.06-3.18c-0.79-0.26-2.23,0.89-2.18,1.9c0.06,1.28,1.43,2.03,2.57,2.48
		C158.21,118.61,157.91,117.67,158.06,117.08z M156.15,107.04c-0.37-0.9-1.1-1.42-1.97-1.43c-0.79-0.01-1.74,0.39-1.79,1.28
		c-0.06,0.99,0.88,1.49,1.74,1.58C155.08,108.56,155.66,107.82,156.15,107.04z M149.73,116.8c-0.03,0.57-0.09,1.3,0.53,1.1
		c0.98-0.31,2.06-0.91,2.13-2.06c0.05-0.84-0.88-1.56-1.62-1.42C149.47,114.67,150.14,116.09,149.73,116.8z M150.86,109.83
		c0.01,0.49-0.28,1.21,0.37,1.19c0.9-0.03,1.65-0.69,1.8-1.59c0.11-0.65-0.56-1.14-1.15-1.17
		C150.73,108.2,151.21,109.33,150.86,109.83z M154.28,104.07c0.62-0.1,1.34-0.25,1.27-0.99c-0.07-0.73-0.72-1.13-1.46-1.07
		c-0.62,0.05-1.23,0.39-1.16,1.12C152.99,103.87,153.66,103.98,154.28,104.07z M157.15,109.48c-0.06-0.52-0.02-1.18-0.81-1.09
		c-0.47,0.06-0.91,0.42-0.92,0.93c-0.01,0.7,0.55,1.12,1.15,1.18C157.27,110.58,157.11,109.92,157.15,109.48z"/>
	<path d="M167.89,121.06c0-5.25,0-10.51,0-15.76c0.01,0,0.02,0,0.04,0c0.26,5.26,0.52,10.52,0.78,15.78
		C168.43,121.07,168.16,121.06,167.89,121.06z"/>
	<path d="M167.38,90.48c0.59,0.04,0.8,0.45,0.85,0.92c0.06,0.6-0.19,1.06-0.86,1.04c-0.52-0.01-0.95-0.39-0.94-0.85
		C166.45,91.08,166.79,90.61,167.38,90.48z"/>
	<path d="M125.11,116.96c0,2.57-1.86,4.41-4.44,4.42c-2.52,0.01-4.52-1.97-4.49-4.42c0.03-2.47,2.07-4.49,4.51-4.48
		C123.23,112.48,125.12,114.4,125.11,116.96z"/>
	<path d="M102.91,117.59c0,2.59-1.86,4.38-4.51,4.37c-2.55-0.01-4.4-1.78-4.43-4.24c-0.03-2.58,2.04-4.62,4.62-4.55
		C101.03,113.23,102.92,115.16,102.91,117.59z"/>
	<path d="M145.65,158.12c0.75,0.11,1.44,0.4,1.48,1.3c0.04,0.9-0.35,1.57-1.35,1.63c-0.99,0.05-1.5-0.55-1.52-1.46
		C144.25,158.74,144.79,158.26,145.65,158.12z"/>
	<path d="M165.71,159.6c-0.16,0.86-0.52,1.46-1.42,1.44c-0.96-0.02-1.46-0.6-1.45-1.52c0.01-0.86,0.59-1.38,1.39-1.39
		C165.16,158.12,165.63,158.75,165.71,159.6z"/>
</g>
</svg>
