<?xml version="1.0" encoding="utf-8"?>
<!-- Generator: Adobe Illustrator 25.3.1, SVG Export Plug-In . SVG Version: 6.00 Build 0)  -->
<svg version="1.1" id="Layer_1" xmlns="http://www.w3.org/2000/svg" xmlns:xlink="http://www.w3.org/1999/xlink" x="0px" y="0px"
	 viewBox="0 0 1080 1080" style="enable-background:new 0 0 1080 1080;" xml:space="preserve">
<style type="text/css">
	.st0{display:none;}
	.st1{display:inline;}
</style>
<g class="st0">
	<path class="st1" d="M567.12,999.3c-57.73,0.35-106.34-17.84-150.57-48.4c-51.12-35.32-87.88-81.9-106.67-141.68
		c-9.19-29.22-10.14-59.05-6.06-89.33c5.3-39.36,18.01-75.87,39.96-109.03c21.34-32.25,49.33-57.95,80.26-80.7
		c9.8-7.2,19.95-13.88,30.52-19.88c3.83-2.18,4.24-3.69,0.75-6.81c-15.71-14.06-29.89-29.42-39.96-48.21
		c-24.63-45.97-19.09-101.19,13.75-141.9c18.61-23.07,41.4-41.36,64.76-59.12c3.71-2.82,7.32-5.81,11.22-8.34
		c3.27-2.13,3.01-3.92,0.85-6.77C494.42,224,486,207.36,481.61,188.75c-9.53-40.48,18.71-87.16,58.29-96.03
		c13.95-3.12,27.13-0.4,39.43,6.5c41.66,23.34,56.87,61.06,52.99,104.05c-2.36,26.14-14.94,47.53-30.75,67.54
		c-7.58,9.59-7.42,9.71,3,16.21c19.91,12.42,40.09,24.44,58.47,39.14c21.17,16.94,35.38,38.11,40.08,65.21
		c4.81,27.7-1.65,53.16-15.23,77.13c-10.96,19.36-26.32,35.13-42.45,50.14c-3.49,3.25-3.34,4.49,0.6,6.98
		c33.54,21.27,65.58,44.59,93.82,72.65c35.56,35.34,56.55,78.46,66.02,127.39c11.71,60.5-4.14,114.67-38.68,164.22
		c-39.19,56.22-92.74,91.05-159.6,105.49C593.25,998.48,578.63,999.53,567.12,999.3z M597.71,909.24c4.4,0.36,11.88-0.47,19.3-1.38
		c49.62-6.12,90.65-28.08,122.52-66.82c26.97-32.79,38.1-70.15,31.18-112.14c-8.79-53.32-37.46-92.92-84.45-119.51
		c-27.92-15.8-58.15-26.03-87.77-37.84c-13.1-5.22-22.45-3.98-33.89,4.12c-25.66,18.16-52.69,34.37-76.51,55.11
		c-26.03,22.65-47.04,48.78-58.49,81.85c-11.06,31.95-11.98,63.41,3.35,94.42c9.4,19.01,21.57,35.95,37.15,50.32
		C505.26,889.79,545.94,909.08,597.71,909.24z M734.56,883.19c-8.98,7.53-18.15,14.7-27.89,21.12
		c-9.88,6.51-20.22,12.22-31.02,17.05c-40.85,18.29-83.19,26.67-127.81,18.36c-63.19-11.77-112.35-44.77-147.74-98.38
		c-15.93-24.14-26.36-50.33-28.88-79.3c-2.54-29.15,2.98-56.94,15.13-83.48c21.1-46.11,54.83-80.93,96.8-108.4
		c32.34-21.18,66.62-38.92,100.7-57.04c33.11-17.61,61.58-40.8,82.82-72.09c10.81-15.93,15.18-33.49,11.42-52.68
		c-2.12-10.83-6.42-20.64-13.56-29.41c-0.36,0.6-0.56,0.79-0.52,0.87c1.05,2.25,2.13,4.49,3.2,6.73
		c11.37,23.71,9.76,46.24-5.93,67.63c-19.62,26.74-44.5,47.12-74.3,61.46c-36.41,17.52-72.86,34.93-107.88,55.19
		c-46.42,26.85-84.07,62.32-109.3,110.17c-20.55,38.99-28.49,79.98-19.16,123.53c10.43,48.7,35.36,88.66,74.13,119.75
		c45.61,36.58,97.07,56.02,156.31,50.87c47.38-4.12,90.19-20.51,128.32-48.96C718.53,899.37,727.21,891.98,734.56,883.19z
		 M502.24,396.79c0.11,5.68,1.41,11.01,4.08,15.89c10.48,19.16,24.81,34.93,42.41,47.8c1.86,1.36,3.75,2.04,6.04,1.14
		c24.97-9.86,49.43-20.7,70.63-37.6c22.51-17.94,26.23-40.96,10.91-65.2c-14.6-23.09-34.11-41.66-54.39-59.54
		c-2.05-1.8-3.39-1.3-4.99,0.5c-4.2,4.73-8.55,9.33-12.75,14.06c-17.45,19.68-36.34,38.08-52.53,58.88
		C506.11,379.84,502.33,387.64,502.24,396.79z M540.86,119.88c-4.88,0.02-10.53,1.04-14.91,3.54
		c-20.09,11.48-32.02,28.69-32.76,51.92c-0.72,22.6,10.16,41.15,23.93,58.18c1.81,2.24,3.35,1.22,5.09-0.05
		c10.75-7.85,21.68-15.45,32.27-23.51c26.92-20.5,30.63-52.57,9.29-78.82C557.88,123.89,550.24,120.08,540.86,119.88z
		 M469.19,437.15c-0.82-1.77-1.61-3.56-2.47-5.31c-11.24-22.9-11.32-45.73,0.28-68.55c7.11-13.98,17.24-25.65,28.03-36.81
		c22.63-23.41,48.06-43.67,72.91-64.58c10.11-8.51,19.24-17.94,26.6-28.98c26.4-39.56,18.42-91.28-18.35-118.27
		c-12.56-9.22-26.33-12.01-41.33-6.88c5.87-0.65,11.79-1.35,17.69-0.3c13.38,2.38,22.64,10.88,30.3,21.26
		c24.47,33.14,18.55,72.4-7.65,102.51c-12.92,14.85-28.96,26.52-43.84,39.34c-21.26,18.29-41.67,37.43-58.48,59.99
		c-15.17,20.36-25.72,42.46-21.95,68.93C453,413.95,458.6,426.87,469.19,437.15z"/>
</g>
<g>
	<g>
		<path d="M540.33,101.6c3.42,0,6.86,0.18,10.27-0.03c21.25-1.32,41.7,4.91,62.62,6.62c1.21,0.1,2.4,0.72,3.56,1.19
			c3.41,1.36,5.84,1.77,3.35,7.31c-4.33,9.64-6.41,20.28-9.56,30.46c-2.03,6.57-4.08,13.15-6.54,19.57
			c-1.59,4.15-0.67,6.14,3.63,7.3c18.76,5.05,36.84,12.06,54.36,20.31c12.31,5.79,24.1,12.76,35.73,19.85
			c3.57,2.18,5.23,1.55,7.42-1.04c10.83-12.79,23.52-23.9,33.65-37.36c5.3-7.05,6.14-7.06,13.1-1.55
			c19.24,15.24,35.98,32.98,51.75,51.7c4.9,5.82,9.72,11.73,14.84,17.36c2.42,2.67,2.38,3.98-0.65,6.29
			c-14.1,10.71-27.98,21.7-41.9,32.65c-3.59,2.82-4.37,5.18-1.44,10.05c8.61,14.37,16.64,29.16,23.34,44.55
			c4.5,10.36,9.21,20.66,11.87,31.75c1,4.15,4.96,2.93,7.6,2.55c17.54-2.49,35.09-4.78,52.78-5.79c4.61-0.26,5.69,3.6,6.03,6.65
			c2.1,18.85,6.77,37.3,7.03,56.52c0.15,11.22,0.08,22.55,0.88,33.79c0.37,5.24-1.72,6.48-6.66,6.53
			c-16.82,0.2-33.45-2.65-50.24-2.8c-5.13-0.05-6.75,1.51-7.49,6.67c-3.53,24.48-9.34,48.48-16.75,72.07
			c-1.31,4.17-4.05,7.8-5.37,12.08c-1.1,3.57-1.51,5.39,2.79,7.76c15.62,8.62,31.56,16.62,47.37,24.86
			c4.09,2.13,4.77,4.88,2.45,8.63c-11.9,19.28-23.24,38.93-36.92,57.04c-6.62,8.76-13.99,16.96-20.98,25.44
			c-1.94,2.35-3.38,2.86-6.12,0.43c-11.55-10.24-23.5-20.03-35.07-30.24c-3.11-2.74-7.87-2.73-10.12-6.98
			c-0.78-1.48-3.1-0.06-4.32,1.26c-13.76,14.88-30.28,26.37-46.87,37.7c-7.07,4.82-14.62,8.99-22.19,13.01
			c-3.61,1.92-4.55,3.38-2.1,7.07c9.63,14.48,18.85,29.24,28.55,43.67c2.59,3.85,2.06,5.37-1.9,7.51
			c-12.43,6.72-25.75,11.22-38.86,16.25c-19.06,7.31-39.2,10.59-58.93,15.36c-3.17,0.77-5.24-0.23-5.53-4.13
			c-0.65-9.06-1.15-18.18-2.68-27.1c-1.35-7.87-0.96-15.7-1.12-23.55c-0.1-5.33-1.93-8.67-7.95-7.91
			c-13.79,1.74-27.79,0.02-41.45,1.61c-14.35,1.67-28.14-2.02-42.23-1.76c-1.37,0.03-2.76-0.92-4.13-1.44
			c-6.21-2.35-7.77-1.09-8.38,5.44c-0.91,9.84-3.84,19.31-6.07,28.9c-1.52,6.52-3.12,13.06-4.03,19.67
			c-0.67,4.91-3.25,6.08-7.38,5.23c-15.61-3.18-30.43-8.65-45.35-14.26c-19.74-7.42-37.6-18.46-56.73-26.95
			c-3.9-1.73-4.88-4.73-1.74-8.75c11.14-14.27,21.95-28.79,33.04-43.09c1.9-2.45,0.31-3.56-1.09-4.68
			c-5.6-4.45-11.37-8.68-16.99-13.12c-11.21-8.85-22.58-17.43-32.97-27.37c-6.29-6.03-12.21-12.18-17.45-19.07
			c-1.55-2.04-2.69-1.82-4.66-0.29c-10.31,7.99-20.81,15.74-31.18,23.66c-4.52,3.46-9,7-13.27,10.77c-2.66,2.35-3.85,0.19-5.14-1.27
			c-6.29-7.12-11.76-14.88-16.56-23.04c-8.17-13.88-15.97-27.99-23.79-42.07c-3.53-6.35-4.64-13.81-9.37-19.73
			c-1.23-1.54,0.71-3.94,3.12-5.1c7.38-3.53,14.45-7.79,21.99-10.92c10.07-4.18,19.4-9.79,29.34-14.16
			c3.96-1.75,2.81-5.38,1.82-7.65c-8.25-18.85-8.32-39.36-11.98-59.1c-1.25-6.76-1.53-14.11-0.52-21.25
			c0.54-3.85-1.45-6.35-5.4-6.17c-12.07,0.54-24.13,1.45-36.2,2.03c-6.82,0.32-13.65,0.45-20.48,0.31
			c-3.75-0.08-3.85-3.38-3.09-5.73c2.34-7.22,1.13-14.71,2.06-22.05c1.27-10.03,2.56-20.03,4.07-30.04
			c2.67-17.68,7.13-34.89,11.59-52.15c0.94-3.64,2.77-6.94,3.06-10.89c0.29-3.88,3.85-4.49,6.77-2.95
			c14.85,7.8,30.94,12.75,45.94,20.2c3.66,1.82,5.85,1.92,8.12-2.75c10.43-21.46,21.04-42.89,35.32-62.15
			c5.03-6.79,10.73-13.12,16.48-19.33c3.14-3.39,3.35-5.83-0.03-9.12c-12.65-12.32-25.4-24.54-38.77-36.07
			c-3.07-2.65-2.86-5.36-0.49-7.58c16.38-15.34,32.73-30.74,51.06-43.78c7.18-5.11,14.65-9.86,22.19-14.44
			c3.87-2.35,6.86-4.6,10.56,2.27c7.86,14.58,16.51,28.79,24.45,43.37c2.58,4.74,5.47,5.53,10.27,2.85
			c18.92-10.6,39.35-17.83,60.09-23.39c9.93-2.66,20.06-6.69,30.86-5.96c3.19,0.22,4.77-1.18,3.93-4.73
			c-3.61-15.33-7.77-30.55-8.77-46.4c-0.17-2.65-1.91-5.01-2.68-7.66c-1.4-4.8,0.83-5.38,4.55-6.78
			C512.87,99.01,526.75,103.22,540.33,101.6z M549.76,348c0.31-2.37,0.58-3.21,0.5-4.01c-1-9.19-2.74-18.29-4.2-27.38
			c-1.55-9.63-2.18-20.61-12.87-26.25c-2.25-1.19-3.38-3.59-3.93-6.24c-0.64-3.06-1.2-6.31-2.67-8.98
			c-6.12-11.12-5.33-22.78-2.68-34.4c0.76-3.33,3.12-6.99,7.06-8.1c4.18-1.17,4.37,2.92,5.91,5.14c1.54,2.23,3.14,2.69,4.82,0.19
			c2.67-3.97,6.06-7.43,7.59-12.19c0.61-1.9,2.19-3.79,4.83-3.41c1.1,0.16,2.29,1.09,1.94,1.99c-0.78,2.01-1.29,4.43,0.92,4.85
			c2.57,0.49,3.15-2.73,4.46-4.48c2.44-3.24,3.53-7.22-1.74-7.41c-15.16-0.55-30.53-1.57-45.49,0.27
			c-16.71,2.05-33.14,6.52-49.18,12.31c-20.31,7.33-39.09,17.49-56.56,29.82c-18.16,12.81-33.55,28.93-47.55,46.14
			c-11.11,13.66-19.98,28.93-27.46,44.86c-6.4,13.62-10.66,28.03-14.75,42.56c-3.11,11.04-4.74,22.22-5.67,33.38
			c-1.14,13.7-0.09,27.56-0.36,41.35c-0.11,5.64,2.55,6.8,7.14,5.59c17.39-4.59,34.84-8.88,52.34-13.05
			c23.4-5.57,46.46-12.61,69.96-17.92c5.9-1.33,11.7-3.14,17.53-4.8c2.95-0.84,3.99-2.98,3.31-5.84c-1.15-4.88-2.53-9.71-3.66-14.59
			c-2.66-11.41-5.31-22.83-7.81-34.27c-2.81-12.87-5.36-25.81-8.22-38.67c-2.46-11.05-4.04-22.03,0.28-33.01
			c1.07-2.72-0.22-5.23-1.86-7.03c-6.15-6.71-9.54-15.28-15.37-22.22c-3.82-4.56-3.72-10.37-2.93-15.84
			c0.8-5.56,8.7-9.49,13.93-7.45c3.84,1.5,7.17,3.81,9.58,7.12c5.17,7.09,10.49,14.11,15.06,21.59c3.08,5.04,6.92,7.04,12.55,6.57
			c5.59-0.47,11.12-0.21,15.7,3.58c10.9,9.04,21.72,18.16,32.55,27.29C531.42,332.39,540.06,339.76,549.76,348z M346.94,475.93
			c-8.17,0.98-15.29,2.08-22.56,1.85c-9.45-0.3-9.78,0.24-9.01,9.62c0.12,1.43,0.65,2.84,1.11,4.22c2.85,8.54,5.16,17.31,7.4,25.95
			c5.53,21.26,15.78,40.24,27.63,58.06c13.8,20.75,31.69,38.08,51.46,53.63c26.1,20.53,55.89,32.46,87.4,40.9
			c6.45,1.73,13.33,1.83,20,2.77c3.77,0.53,4.96-1.74,3.83-4.47c-3.26-7.86-2.57-16.51-5.72-24.45c-4.32-10.87-3.9-11.01-15.69-11
			c-19.26,0.02-38.51,0.01-57.77-0.05c-4.04-0.01-8.09-0.5-12.11-0.34c-1.91,0.07-3.81,0.93-5.3-0.84c-1.75-2.09,0.37-3.64,1.2-5.03
			c5.59-9.38,11.68-18.47,17.08-27.96c12.06-21.17,24.53-42.08,37.16-62.91c3.1-5.12,8.33-10.07,7.72-16.28
			c-1.58-16.06-6.32-31.58-9.74-47.33c-0.39-1.79-1.2-3.61-3.89-3.24c-13.82,1.94-27.83,2.38-41.68,3.07
			C398.97,473.42,372.52,476.12,346.94,475.93z M769.84,441.5c-0.37-6.2-0.27-13.36-1.06-20.6c-2.04-18.68-6.64-36.62-13.09-54.15
			c-8.88-24.14-21.44-46.05-37.53-66.29c-17.12-21.53-37.75-38.44-61.06-52.49c-6.11-3.68-6.71-3.27-6.71,4.05
			c-0.02,58.45,0.02,116.9-0.08,175.36c-0.01,3.49,0.88,6.04,3.52,8.32c15.22,13.12,31.3,25.23,45.86,39.13
			c3.68,3.51,8.49,3.95,13.08,2.54c15.39-4.72,30.84-9.16,46.59-12.5c10.27-2.18,10.5-2.43,10.49-12.75
			C769.84,448.91,769.84,445.7,769.84,441.5z M536.23,621.57c28.45,0,56.91,0,85.36,0c4.28,0,8.56,0.03,12.84-0.02
			c3.13-0.03,5.79-1.33,5.29-4.76c-1.75-12.12-0.75-24.27-0.68-36.38c0.1-16.82-1.23-33.67,0.76-50.47
			c0.33-2.78-0.94-3.98-3.86-2.68c-11.32,5.04-22.64,10.08-34.02,14.99c-2.64,1.14-3.02,3.01-2.99,5.52
			c0.11,7.91,0.11,15.83,0.04,23.75c-0.07,7.75-1.27,8.93-8.81,8.93c-19.04,0.01-38.09,0.4-57.12-0.13
			c-14-0.39-27.42,0.51-39.48,8.5c-1.19,0.79-2.4,0.78-3.53-0.07c-1.61-1.21-0.15-2,0.35-3.06c6.73-14.18,13.5-28.34,20.03-42.61
			c9.97-21.79,19.5-43.79,29.74-65.46c6.4-13.53,4.74-11.48-7.04-11.55c-4.76-0.03-7.83,0.65-10.43,5.78
			c-5.97,11.74-13.22,22.83-20.01,34.16c-8.73,14.56-17.59,29.04-26.26,43.63c-12.95,21.81-25.76,43.71-38.73,65.52
			c-0.96,1.62-2.92,3.17-2.21,4.92c0.99,2.46,3.74,1.45,5.75,1.46C472.91,621.59,504.57,621.57,536.23,621.57z M410.93,461
			c0.1,0.45,0.2,0.9,0.3,1.35c1.49,0,2.98,0.06,4.46-0.01c16.96-0.84,33.93-1.61,50.88-2.58c12.69-0.72,25.44-1.08,38.01-2.73
			c16.94-2.22,34.01,0.29,50.9-2.27c4.88-0.74,5.86,1.81,3.79,6.23c-11.21,23.86-22.31,47.78-33.39,71.7
			c-4.84,10.44-9.52,20.96-14.31,31.43c-0.69,1.51-2.14,3.13-0.27,4.47c1.16,0.84,2.83,0.45,4.26-0.24
			c11.71-5.67,23.84-10.36,35.78-15.49c12.85-5.53,25.56-11.53,38.47-16.82c17.7-7.26,35.04-15.34,52.87-22.25
			c11.91-4.62,23.16-10.85,35.56-14.22c1.58-0.43,3.17-1.17,2.67-2.86c-0.54-1.85-2.64-1.19-3.87-0.85
			c-8.82,2.44-17.51,5.37-26.39,7.55c-15.44,3.79-30.6,8.66-46.04,12.27c-9,2.1-17.73,5.2-26.81,6.78
			c-1.97,0.34-4.83,2.09-6.44-0.24c-1.68-2.43,0.6-4.89,1.5-7.06c3.82-9.23,8.28-18.19,12.01-27.45
			c9.68-24.06,19.36-48.11,30.29-71.63c0.78-1.67,0.95-3.33,0.11-4.9c-1.04-1.94-2.63-0.56-3.89-0.26
			c-18.73,4.48-37.48,8.91-56.16,13.57c-14.41,3.6-28.73,7.59-43.13,11.23c-13.37,3.38-26.76,6.71-40.22,9.73
			c-16.73,3.76-33.06,9.15-50.05,11.89C418.09,457.95,414.55,459.75,410.93,461z M642.63,638.68c0.51,3.19,0.31,8.24,3.36,10.34
			c3.27,2.25,5.92-2.58,8.94-4.1c0.75-0.38,1.52-0.72,2.26-1.13c21.66-12.16,40.05-28.42,56.57-46.68
			c16.16-17.87,28.19-38.57,38.17-60.47c1.69-3.72,1.99-6.44-2.01-9c-11.69-7.45-23.27-15.08-34.75-22.85
			c-7.32-4.96-13.72-6.3-22.64-1.79c-11.1,5.61-22.53,11.08-34.66,14.67c-5.86,1.73-8.12,5.04-7.92,12.38
			c0.86,30.99,0.41,62.01,0.32,93.02c-0.01,3.82-0.59,8.24-4.74,9.56C642.14,633.71,642.7,635.69,642.63,638.68z M641.42,274.28
			c-6.5,3.46-7.33,9.54-10.32,14.05c-8.58,12.96-15.91,26.69-23.86,40.02c-8.25,13.84-16.21,27.9-24.44,41.77
			c-7.28,12.28-14.03,24.88-22.14,36.67c-0.89,1.29-2.3,3.11-1.14,4.68c1.29,1.74,3.04-0.1,4.57-0.17
			c7.92-0.33,14.97-3.99,22.56-5.6c14.51-3.08,28.83-7.04,43.19-10.75c1.29-0.33,2.55-1,3.42,0.2c0.82,1.13-0.02,2.32-0.55,3.52
			c-2.37,5.33-4.56,10.73-6.83,16.1c-7.11,16.85-14.74,33.51-21.05,50.66c-2.05,5.56-6.44,10.38-5.94,17.01
			c0.43,5.74,0.37,11.56-0.01,17.31c-0.34,5.2,2.05,5.72,6.14,4.62c9.07-2.43,18.04-5.72,27.27-6.91c7.15-0.92,7.99-4.12,7.97-10.06
			c-0.16-43.62-0.1-87.25-0.08-130.87c0-6.56,0.74-13.12,0.97-19.64c0.47-12.81-0.45-25.69-1.03-38.53
			C639.79,290.62,640.97,282.94,641.42,274.28z M540.58,675.46c12.69-0.13,25.19-2.05,37.76-3.61c19.78-2.46,38.23-8.73,56.3-16.73
			c4.51-1.99,6.33-3.54,3.51-8.64c-1.39-2.53-2.58-5.79-2.99-8.84c-0.71-5.32-4.13-5.42-8.09-5.13c-2.32,0.17-4.64,0.47-6.96,0.48
			c-25.84,0.03-51.68,0.09-77.52-0.04c-4.6-0.02-9.19,0.54-13.9-0.8c-2.39-0.68-7.1,0-6.01,4.69c1.94,8.37,1.77,16.79,1.92,25.25
			c0.24,13.37,0.33,13.37,13.41,13.37C538.87,675.46,539.73,675.46,540.58,675.46z M587.1,297.19c1.39,9.33,2.77,18.66,4.19,27.99
			c0.3,1.98-1.13,5.16,1.06,5.7c2.96,0.74,3.73-2.74,4.96-4.83c6.67-11.32,13.27-22.69,19.95-34.01
			c8.85-15.01,17.79-29.96,26.57-45.01c1.57-2.7,3.24-5.77-1.39-7.67c-10.24-4.18-20.4-8.57-30.66-12.71
			c-5.23-2.11-8.48-0.51-9.78,5.05c-2.05,8.86-2.72,17.92-3,26.99c-0.3,9.51,1.11,19.45-6.52,27.16
			C589.36,289.02,585.33,291.66,587.1,297.19z M565.68,379.21c-0.02-3.03-1.53-4.23-2.87-5.04c-8.69-5.23-13.4-14.47-21.39-20.59
			c-12.75-9.75-25.17-20-36.71-31.22c-1.01-0.98-2.08-1.57-3.41-1.12c-1.66,0.56-1.36,2.22-1.03,3.24
			c3.13,9.74-0.86,17.21-7.47,23.81c-2.15,2.15-1.66,3.42,0.69,4.92c19.97,12.7,39.88,25.5,59.89,38.14
			c1.18,0.75,3.12,2.87,4.44,0.94C560.87,387.88,563.39,383.09,565.68,379.21z M492.96,424.42c-1.59-13.72-3.03-25.23-4.23-36.76
			c-1.03-9.87-1.77-19.78-2.65-29.67c-0.27-3.08-1.92-3.89-4.83-3.16c-7.67,1.92-15.08,1.62-21.72-3.27
			c-1.16-0.86-2.45-1.34-3.52-0.68c-1.19,0.73-0.96,2.35-0.66,3.54c3.64,14.21,6.46,28.6,9.56,42.92
			c1.93,8.92,3.81,17.93,5.65,26.89c1.76,8.59,3.22,9.85,11.57,7.44c1.21-0.35,2.48-0.48,3.74-0.61
			C491.3,430.52,494.12,428.05,492.96,424.42z M506.51,426.34c9.25-2.51,18.6-5.66,28.2-7.43c6.93-1.28,11.07-4.72,14.45-10.54
			c2.71-4.68,2.15-6.9-2.62-9.81c-14.82-9.04-29.26-18.71-43.83-28.16c-1.15-0.75-1.88-2.55-3.72-1.2c-1.44,1.06-1.59,2.51-1.13,4
			c2.35,7.57,0.56,15.47,2.11,23.21c1.76,8.83,2.05,17.97,2.71,27C502.87,426.15,504.09,426.63,506.51,426.34z M768.53,476.31
			c-0.08-4.8-1.31-5.39-5.54-3.68c-4.82,1.95-9.18,4.76-14.16,6.49c-8.42,2.94-16.57,6.67-24.84,10.04
			c-3.21,1.31-4.16,2.84-0.82,5.25c2.89,2.09,5.8,4.19,8.4,6.61c6.96,6.46,15.51,11.13,21.32,18.85c0.9,1.2,1.38,2.89,3.12,2.57
			c1.59-0.29,1.96-1.82,2.36-3.37c1.99-7.67,4.37-15.24,6.22-22.94C766.21,489.43,767.3,482.6,768.53,476.31z M573.07,308.12
			c-3.33,0.47-6.65,1.18-10,1.36c-6.9,0.37-8.67,2.92-7.44,9.84c1.1,6.19,3.36,12.09,3.72,18.48c0.34,5.84,1.55,11.64,2.49,17.44
			c0.94,5.78,5.87,8.6,10.19,10.4c3.64,1.52,2.81-4.59,5.28-6.32c0.99-0.7,1.87-1.88,2.28-3.02c1.37-3.84,5.69-6.85,3.99-11.53
			c-3.63-9.97-2.11-20.5-3.65-30.7C579.26,309.61,577.76,307.39,573.07,308.12z M565.26,570.26c6.81,0,12.56-0.05,18.31,0.02
			c2.42,0.03,4.12-0.31,4.03-3.38c-0.15-4.9-0.03-9.8-0.04-14.7c-0.01-2.73-0.96-4.06-3.88-2.64c-13.28,6.47-27.1,11.67-40.77,17.21
			c-1.4,0.57-4.04,0.97-3.62,2.96c0.48,2.29,3.17,2.16,4.89,1.66C551.5,569.23,558.95,570.83,565.26,570.26z M679.92,483.4
			c-0.1-0.91-0.55-1.38-1.4-1.85c-8.21-4.52-16.15-9.46-23.68-15.06c-1.13-0.84-2.92-0.75-4.23,0.2c-1.37,0.99-1.06,2.12-0.76,3.79
			c0.93,5.22,0.81,10.57,0.11,15.85c-0.61,4.62,1.3,5.33,5.59,5.09c7.42-0.42,13.68-5.46,21.31-4.77
			C678.75,486.81,679.9,485.44,679.92,483.4z M488.56,468.68c-8.1,0-7.89-0.04-6.43,7.62c1.25,6.55,4.82,12.54,4.19,19.58
			c-0.2,2.28,1.45,4.71,2.15,7.1c0.59,2.01,2.78,2.43,3.28,1.28c2.22-5.1,7.92-9.01,6.86-15.04c-0.67-3.81-0.84-7.52-0.9-11.28
			C497.57,468.68,497.64,468.68,488.56,468.68z M578.53,240.55c-2.87,1.3-3.77,2.66-3.96,4.84c-0.24,2.7-0.67,5.44-1.51,8.01
			c-0.55,1.69-1.05,4.22-3.1,4.44c-2.36,0.26-3.3-2.07-4.44-3.9c-1.61-2.6-1.01-5.36-1.09-8.07c-0.05-2.02-0.49-3.23-2.88-3.12
			c-2.13,0.1-2.32,1.39-2.32,2.99c0,3.2-0.01,6.41-0.01,9.61c0,13.37,0,13.37,12.98,10.51c4.4-0.97,6.96-2.95,6.45-8.2
			C578.11,252.18,578.53,246.61,578.53,240.55z M434.75,269.74c-1.98,0.9-3.38,1.71-1.43,4.56c5.34,7.78,10.37,15.77,15.5,23.7
			c1.57,2.42,3.59,2.46,5.81,1.12c2.97-1.8,0.84-3.65-0.24-5.15c-5.15-7.18-10.52-14.21-15.61-21.43
			C437.74,271.04,437.02,269.67,434.75,269.74z M473.91,337.83c5.19-0.01,9.51-3.94,9.62-8.76c0.14-5.78-4.1-10.49-9.5-10.54
			c-4.1-0.04-9.74,5.65-9.85,9.95C464.05,333.62,468.44,337.84,473.91,337.83z M572.3,274.76c-2.75,1.22-6.56,1.11-10.21,1.87
			c-2.73,0.58-3.22,2.81-2.88,5.37c0.43,3.28,2.39,2.41,4.52,2.01c3.47-0.65,7-0.95,10.5-1.46c3.19-0.47,3.12-2.86,3.06-5.28
			C577.21,274.18,574.9,275.06,572.3,274.76z M673.3,467.4c0.07-1.36,0.38-2.31,0.09-2.56c-6.84-5.87-13.74-11.68-20.67-17.45
			c-1.03-0.86-1.97-0.25-2.78,0.57c-1.54,1.56-0.43,2.65,0.65,3.76C657.03,458.38,664.92,462.85,673.3,467.4z M551.45,263.12
			c-1.34-3.1-0.95-7.38-1.41-11.57c-0.13-1.22-0.55-3.23-2.27-3.37c-1.73-0.14-1.96,1.67-2.77,2.9c-3.22,4.94,2.36,8.69,1.46,13.29
			c-0.4,2.05,0.5,4.17,2.98,3.83C551.33,267.95,551.78,265.96,551.45,263.12z M530.77,259.87c1.02,2.5,2.16,5.61,3.56,8.6
			c0.59,1.26,2.05,1.6,3.33,1.12c1.54-0.57,1.37-2.2,1-3.25c-1.02-2.92-2.24-5.8-3.65-8.55c-0.51-1-1.5-2.32-2.98-1.89
			C530.34,256.39,531.25,258.03,530.77,259.87z M576.24,218.4c-3.1-0.21-5.56,0.23-5.4,3.86c0.09,2.06,0.84,5.34,2.72,4.76
			c2.78-0.87,5.69-3.22,6.13-6.65C580.04,217.58,577.42,218.71,576.24,218.4z M541.86,278.7c-2.34,0.04-4.85,0.69-4.07,2.93
			c0.83,2.39,2.8,4.73,6.09,4.85c2.56,0.1,2.88-1.47,2.52-3.29C545.89,280.64,545.13,278.1,541.86,278.7z M588.73,226.05
			c0.2,1.67-0.7,4.11,2.46,3.95c3.2-0.17,4.99-1.92,5.33-5.08c0.33-3.04-1.91-2.54-3.76-2.72
			C589.88,221.93,588.21,222.77,588.73,226.05z M511.75,469.26c-0.2-0.83,0.69-3.19-1.51-2.81c-1.95,0.34-3.61,2.05-3.64,4.5
			c-0.03,1.67,0.1,3.95,2.14,3.56C510.72,474.14,512.1,472.14,511.75,469.26z"/>
		<path d="M435.5,933.27c-3.66-3.25-7.65-4.32-10.96-4.63c-10.86-1-20.69-5.44-30.98-8.24c-16.98-4.63-33.65-10.53-49.38-18.34
			c-17.98-8.93-36.01-17.76-53.42-27.95c-15.4-9.01-28.08-20.74-41.08-32.48c-8.19-7.4-16.27-14.62-21.91-24.36
			c-4.68-8.07-6.55-15.82-0.83-23.94c2.04-2.89,0.06-4.17-1.58-5.8c-7.52-7.49-15.11-14.91-22.53-22.49
			c-20.61-21.08-38.34-44.37-52.93-70c-10.54-18.53-20.22-37.44-28.83-57.03c-7.24-16.49-12.54-33.57-18.04-50.51
			c-5.14-15.82-8.21-32.41-11.16-48.92c-2.8-15.65-3.29-31.47-5.11-47.18c-1.56-13.46-4.15-26.88-3.55-40.42
			c0.58-13.08,2.38-26.12,4.01-39.14c0.86-6.91,2.14-13.77,2.22-20.75c0.14-11.25,3.79-21.94,5.1-33
			c1.43-12.11,6.55-23.4,7.81-35.55c0.48-4.63,4.14-8.18,4.28-13.16c0.05-1.69,2.9-1.45,4.85,0.61
			c9.27,9.76,18.97,19.12,28.24,28.88c3.14,3.3,5.96,3.34,9.52,1.23c14.44-8.57,29.88-15.33,43.99-24.5
			c1.16-0.75,2.47-1.35,3.41-0.29c1.04,1.16,0.63,2.72,0.15,4.22c-4.49,14.12-8.95,28.24-12.44,42.66
			c-4.1,16.94-7.23,33.95-9.41,51.32c-2.36,18.81-3.73,37.53-3.24,56.37c0.41,15.99,2.19,31.87,4.46,47.79
			c2.17,15.24,5.53,30.09,9.55,44.79c5.12,18.72,11.75,36.96,20.53,54.37c6.04,11.97,11.94,24,19.13,35.35
			c10.91,17.21,22.86,33.61,35.7,49.45c10.45,12.9,24.18,22.74,33.27,36.86c5.89,9.14,9.73,19.03,11.86,29.57
			c0.84,4.14-0.01,8.36-2.5,12.14c-2.61,3.96-1.3,6.96,2.54,9.56c22.07,14.92,45.46,27.64,69.96,37.76
			c20.99,8.68,42.88,15.1,65.15,20.45c17.87,4.29,36.06,5.78,53.95,9.45c13.51,2.77,27.58,1.83,41.43,1.7
			c9.84-0.1,19.69-0.21,29.52-0.01c12.98,0.27,25.65-2.3,38.41-3.94c16.67-2.14,33.07-5.71,49.26-10.1
			c15.55-4.22,30.59-9.81,45.51-16.02c19.21-7.99,37.42-17.58,54.73-29.02c5.08-3.35,9.99-6.95,14.95-10.48
			c2.85-2.02,3.45-4.56,1.36-7.47c-4.57-6.38-3.57-12.84-1.06-19.77c6.65-18.34,19.02-32.42,32.91-45.44
			c11.29-10.58,21.43-22.2,31.32-34.08c11.48-13.8,21.2-28.81,30.28-44.23c8.69-14.76,15.96-30.15,21.81-46.34
			c3.31-9.17,7.24-18.1,10.27-27.45c4.04-12.42,5.57-25.29,8.55-37.88c6.08-25.75,7.21-51.98,6.33-78.27
			c-0.53-15.84-1.46-31.8-4.01-47.41c-3.21-19.58-7.6-39.04-12.79-58.19c-2.86-10.56-5.31-21.5-10.8-31.25
			c-0.8-1.42-0.59-2.86,0.2-4.85c11.55,7.32,23.01,14.55,34.44,21.83c5.14,3.28,10.19,6.71,15.33,9.98
			c3.09,1.97,5.72,2.21,9.16-0.41c8.67-6.6,16.35-14.19,24.03-21.84c4.83-4.81,6.55-4.83,8.82,1.55
			c6.29,17.73,12.98,35.33,15.54,54.23c0.92,6.76,2.58,13.56,4.02,20.24c6.58,30.56,5.58,61.47,4.21,92.14
			c-0.85,18.93-3.43,38.03-7.81,56.86c-3.27,14.06-5.81,28.39-9.79,42.27c-4.42,15.4-10.11,30.44-15.35,45.61
			c-4.37,12.66-9.43,25.07-15.44,37.01c-8.47,16.84-17.48,33.38-27.8,49.23c-16.78,25.77-37.04,48.48-59.37,69.45
			c-3.25,3.05-4.79,5.63-1.18,9.35c2.23,2.3,1.75,5.61,0.93,7.92c-5.94,16.86-16.22,30.77-29.87,42.25
			c-16.79,14.12-34.56,26.87-53.87,37.26c-11.59,6.24-23.22,12.4-35.55,17.38c-10.63,4.3-21.27,8.51-32.03,12.47
			c-20.06,7.39-40.41,13.76-61.42,17.88c-2.81,0.55-5.65,1.09-8.99,3.94c3.45,0,5.67,0,7.9,0c70.82-0.01,141.64-0.02,212.45-0.02
			c8.72,0,8.67,0.01,6.99,8.63c-0.36,1.86-0.22,3.83-0.22,5.75c-0.02,23.15-0.02,46.3-0.03,69.45c0,8.55,0.01,8.55-8.3,8.55
			c-133.07,0-266.15,0-399.22,0c-77.24,0-154.47,0-231.71,0c-8.94,0-8.21-0.09-9.33-9.16c-1.47-11.94-0.51-23.83-0.77-35.73
			c-0.29-13.59-0.14-27.18-0.05-40.77c0.04-5.52,3.3-6.8,8.43-6.78c46.43,0.15,92.85,0.07,139.28,0.07
			c21.18,0,42.36,0.02,63.54,0.01C431.84,933.52,433.22,933.39,435.5,933.27z M730.6,1015.68c39.78,0,79.57,0,119.35,0
			c1.71,0,3.45,0.18,5.13-0.08c2.83-0.45,5.17-2.27,4.36-5.15c-1.95-6.97-1-14-0.88-20.95c0.25-13.6-1.34-27.24,0.91-40.83
			c0.56-3.41-1.69-5.05-5.52-5.04c-46.03,0.12-92.06,0.13-138.09,0.09c-13.74-0.01-27.46,0.28-41.19,1.12
			c-9.97,0.61-19.97-0.65-29.94-0.9c-16.04-0.39-32.15,0.48-48.17,0.5c-11.89,0.02-23.93-0.06-35.89-0.44
			c-16.34-0.51-32.73-0.47-49.13,0.7c-15.25,1.08-30.64,0.27-45.97-0.8c-7.78-0.54-15.67,0.71-23.51,1.03
			c-11.4,0.47-22.76-1.23-34.21-0.11c-6.07,0.59-12.35-2.51-18.34-0.93c-9.86,2.61-19.73,0.54-29.52,0.73
			c-38.7,0.78-77.42,0.32-116.14,0.32c-1.92,0-3.94,0.26-5.74-0.23c-5.85-1.56-7.61,1.07-7.55,6.46
			c0.12,11.98,0.07,23.96,0.03,35.94c-0.02,7.48,0.23,14.99-0.34,22.43c-0.4,5.18,1.51,7.85,6.58,7.39
			c5.31-0.48,10.63-1.09,15.96-1.12c21.66-0.13,43.32-0.05,64.98-0.05c26.16-0.01,52.31-0.11,78.47-0.01
			c14.98,0.06,30.01,0.83,44.93,0.61c12.84-0.19,25.73,0.34,38.62-0.35c12.44-0.67,25.06-0.07,37.6,0.42
			c11.86,0.46,23.99-0.17,35.99-0.55c20.14-0.64,40.31-0.18,60.46-0.18C652.75,1015.67,691.67,1015.68,730.6,1015.68z
			 M539.79,932.26c7.48-0.73,16.86-0.55,26.18-0.9c22.25-0.85,44.1-3.95,65.85-8.16c14.8-2.86,29.77-5.38,44.15-9.75
			c14.77-4.48,29.29-9.97,43.77-15.53c24.17-9.27,47.53-19.93,69.41-33.76c19.66-12.43,39.31-25.06,53.42-44.04
			c14.02-18.87,11.86-26.99-0.74-38.36c-8.1-7.31-17.41-13.28-26.02-20.04c-3-2.36-5.23-2.04-7.73,0.54
			c-3.39,3.51-7.15,6.62-10.81,9.84c-3.92,3.45-9.85,6.5-10.37,11.62c-0.53,5.18-3.43,7.5-6.51,9.9
			c-6.95,5.42-14.2,10.46-21.48,15.44c-16.84,11.51-35.11,20.37-53.54,28.97c-11.22,5.24-22.86,9.52-34.62,12.93
			c-19.46,5.65-39.11,10.7-59.3,13.7c-12.31,1.83-24.71,4.03-36.99,4.27c-24.28,0.48-48.65,1.89-72.91-0.96
			c-15.45-1.81-30.89-3.47-46.25-6.18c-15.12-2.67-29.8-6.72-44.42-11.03c-13.56-4-26.64-9.5-39.81-14.74
			c-27.72-11.03-52.97-26.13-77.01-43.6c-4.34-3.16-5.39-8.48-10.37-11.26c-5.99-3.34-11.15-8.37-16.16-13.19
			c-3.26-3.14-5.23-3.09-8.35,0.09c-8.7,8.86-15.85,18.83-22.93,28.98c-4.3,6.16-3.11,10.88,0.45,16.1
			c7.44,10.9,17.52,19.37,27.18,28.06c5.86,5.28,11.3,11.15,18.16,15.46c17,10.7,34.3,20.75,52.43,29.46
			c24.56,11.79,49.65,21.84,76.17,28.58c20.97,5.33,41.86,10.17,63.43,12.85C495.33,930.19,516.52,932.47,539.79,932.26z
			 M95.67,482.84c-0.87,5.76,1.01,13.32,1.79,20.87c1.29,12.51,4.37,24.82,5.9,37.31c2.44,19.85,7.59,39.19,13.78,57.94
			c5.73,17.34,12.61,34.49,20.27,51.28c9.42,20.63,20.28,40.41,33.01,58.97c16.43,23.94,35.12,46.27,56.66,65.9
			c8.83,8.04,9.73,11.03,18.85-1.2c1.01-1.36,2.39-2.45,3.57-3.68c9.27-9.7,18.48-19.47,27.86-29.07c2.49-2.55,2.6-4.41,0.02-6.93
			c-5.47-5.35-10.6-11.02-15.76-16.67c-13.26-14.53-25.09-30.13-36.1-46.35c-17.89-26.36-32.7-54.38-42.96-84.61
			c-2.22-6.55-5.16-12.87-6.9-19.51c-2.85-10.88-4.8-22-7.3-32.98c-2.91-12.74-5.52-25.58-5.58-38.66
			c-0.06-12.03-1.07-24.01-0.34-36.09c1.04-17.41-0.88-34.86,2.54-52.29c4.45-22.71,6.3-45.97,15.37-67.63
			c0.43-1.02,0.19-2.62-0.33-3.63c-0.51-0.99-1.95-0.76-2.86-0.2c-9.6,5.93-19.73,10.95-29.38,16.73c-4.46,2.67-6.6,2.08-9.68-1.11
			c-6.68-6.92-13.56-13.65-20.36-20.46c-3.18-3.18-5.46-3-6.61,1.73c-0.29,1.21-1.03,2.35-1.19,3.57
			c-1.92,14.74-6.08,29.03-8.31,43.79c-3.67,24.29-5.76,48.59-7.17,73.03C93.92,462.31,96.36,471.52,95.67,482.84z M988.97,453.59
			c2.67-21.38-1.84-43.38-5.16-65.3c-2.75-18.13-8.3-35.84-12.77-53.7c-1.23-4.92-4.04-5.64-7.64-2.3
			c-6.86,6.37-13.87,12.6-20.42,19.28c-2.89,2.95-4.83,2.79-8.01,0.63c-9.37-6.37-18.96-12.43-28.51-18.54
			c-1.28-0.82-2.12-3.12-4.27-1.72c-2.14,1.4-0.47,3.32-0.04,4.54c4.05,11.64,6.81,23.54,9.5,35.59c5.91,26.5,8.1,53.29,9.58,80.25
			c0.7,12.81-2.02,25.52-1.15,38.27c0.69,10.13-1.92,19.88-3.33,29.58c-2.61,17.95-7.15,35.64-12.92,53.01
			c-6.81,20.5-14.35,40.59-24.9,59.49c-15.33,27.48-32.94,53.22-54.48,76.36c-7.84,8.42-16.12,16.26-24.51,24.04
			c-3.92,3.64-4.44,6.28,0.65,9.28c3.24,1.91,6,4.63,8.99,6.96c12.3,9.61,24.74,19.03,36.84,28.89c5.11,4.17,8.59,1.41,11.79-1.9
			c8.72-9.05,18.06-17.45,26.19-27.13c16.4-19.53,30.76-40.38,43.5-62.45c12.65-21.89,22.95-44.71,31.29-68.61
			c6.96-19.95,14.07-39.76,17.91-60.6c2.39-12.99,5.73-25.75,7.33-38.94C987.04,497.32,990.72,476.21,988.97,453.59z"/>
		<path d="M479.62,329.45c-0.53,2.54-2.2,4.77-5.43,4.34c-2.55-0.34-5.83-0.96-5.92-4.48c-0.09-3.69,3.24-5.02,5.91-5.16
			C476.65,324.02,479.7,325.19,479.62,329.45z"/>
		<path d="M510.49,952.81c4.7,0.16,10.08-0.22,15.49,1.82c6.81,2.57,10.55,7.8,10.95,14.08c0.34,5.3-2.64,10.39-8.84,12.46
			c-3.13,1.04-4,3.31-0.77,5.89c4.87,3.88,7.87,9.31,11.31,14.36c2.24,3.28,0.01,5.2-2.58,4.78c-4.3-0.7-9.21-0.77-11.56-6.06
			c-1.6-3.6-4.09-6.83-6.32-10.13c-1.05-1.56-2.18-3.33-3.73-4.23c-2.25-1.31-4.89-2.28-7.62-1.04c-2.74,1.24-1.34,3.73-1.46,5.64
			c-0.22,3.61-0.01,7.25-0.07,10.88c-0.07,4.32-3.41,5.52-6.5,4.99c-2.73-0.46-4.89-1.59-4.36-6.48c1.25-11.6,0.57-23.42,0.66-35.15
			c0.1-13.42-1.45-11.7,12.08-11.81C508.02,952.8,508.88,952.81,510.49,952.81z M514.16,962.81c0,0.06-0.01,0.11-0.01,0.17
			c-1.06,0-2.15,0.13-3.19-0.02c-4.33-0.66-6.18,0.82-5.75,5.48c0.35,3.87-0.56,8.05,5.6,7.48c2.95-0.28,6.06,0.34,8.89-0.32
			c2.77-0.65,5.67-2.01,6.21-5.54c0.51-3.39-2.01-5.35-4.26-6.47C519.53,962.53,516.68,963.01,514.16,962.81z"/>
		<path d="M267.88,979.9c0-7.04,0.04-14.08-0.01-21.12c-0.03-3.57,1.61-5.89,5.17-5.89c8.63-0.01,17.21-0.62,25.76,2.22
			c6.16,2.05,9.01,6.15,9.97,11.72c1.04,6.03-0.6,11.39-6.83,14.23c-3.39,1.55-4.47,3.21-1.41,6.54c3.64,3.96,6.55,8.59,9.97,12.77
			c1.29,1.59,1.28,3.08,0.49,4.61c-0.78,1.5-2.26,1.73-3.88,1.42c-4.81-0.91-8.77-2.54-11.16-7.54c-1.96-4.1-5.32-7.52-7.96-11.31
			c-2.21-3.17-5.42-3.26-8.57-2.57c-3.52,0.77-2.55,3.95-2.55,6.36c-0.01,2.52-0.2,5.24,0.63,7.52c1.01,2.76-0.09,4.66-1.63,6.23
			c-1.55,1.57-3.65,0.89-5.78,0.37c-3.43-0.84-2.08-3.31-2.13-5.09C267.78,993.56,267.88,986.73,267.88,979.9z M285.45,975.87
			c2.64,0,4.57,0.18,6.46-0.04c2.93-0.34,6.02-0.77,6.73-4.45c0.8-4.1-1.57-6.22-5-7.71c-3.09-1.34-6.29-0.26-9.4-0.72
			c-5.9-0.87-7.72,1.51-7.6,7.45C276.82,978.38,282.44,975.14,285.45,975.87z"/>
		<path d="M579.38,995.15c2.7,5.69,1.48,10.89-4.62,10.92c-7.02,0.04-5.47-5.93-5.44-11.18c0.08-11.85,1.33-23.76-0.76-35.62
			c-0.7-3.95,2.19-6.38,6.07-6.36c4.27,0.02,6.51,2.71,6.29,6.98c-0.17,3.39-0.79,6.75-1.13,10.13c-0.15,1.5-0.2,3.23,1.46,3.88
			c1.45,0.57,2.43-0.9,2.93-1.86c2.81-5.36,8.18-8.5,11.38-13.59c2.77-4.41,7.21-6.41,12.61-5.68c1.43,0.19,3.29-0.46,3.98,1.23
			c0.68,1.68-0.32,3.2-1.55,4.44c-4.37,4.38-8.67,8.85-13.17,13.1c-2.06,1.95-2.46,3.19-0.47,5.72c5.45,6.91,9.29,14.97,15.2,21.62
			c1.4,1.58,3.25,3.72,1.69,6.25c-1.49,2.42-3.74,0.66-5.68,0.81c-8.99,0.72-10.25-7.28-14.12-12.31c-0.61-0.79-0.55-2.18-1.25-2.78
			c-2.4-2.07-1.81-7.94-6.94-6.32C580.86,986.11,580.68,991.09,579.38,995.15z"/>
		<path d="M388.5,980.35c1.04,17.95-12.61,28.87-31.08,26.2c-9.66-1.39-19.84-15.61-18.2-25.45c0.82-4.88,0.6-9.78,3-14.67
			c6.23-12.68,17.49-15.27,27.22-13.33c10.76,2.15,18.97,13.42,19.05,24.68C388.5,978.64,388.5,979.49,388.5,980.35z M349.99,979.63
			c0,1.28-0.01,2.56,0,3.84c0.12,10.49,10.67,17.19,19.96,12.67c6.54-3.18,9.98-13.57,7.39-22.05c-1.73-5.68-3.95-10.38-11.01-11.21
			C356.36,961.7,348.18,968.36,349.99,979.63z"/>
		<path d="M643.75,979.98c-0.21-7,0.67-14.01-0.19-21.04c-0.42-3.42,0.89-6.46,5.84-6.24c8.53,0.38,17.09,0.13,25.63,0.09
			c3.84-0.02,7.15,1.45,7.01,5.43c-0.12,3.42-2.84,5.14-6.81,4.85c-5.31-0.39-10.68,0.05-16.01-0.15c-4.07-0.15-5.12,1.8-5.05,5.47
			c0.07,3.52,0.15,6.43,4.94,6.24c5.33-0.21,10.68,0.03,16.02-0.07c3.11-0.06,4.8,0.98,4.81,4.38c0.01,3.26-1.38,4.65-4.62,4.6
			c-5.13-0.09-10.27,0.26-15.38-0.09c-5.33-0.37-5.81,2.51-5.8,6.72c0.01,4.02,0.62,6.58,5.54,6.33c5.97-0.3,11.96,0.03,17.94-0.11
			c3.58-0.08,4.8,1.43,4.95,4.95c0.16,3.8-1.76,4.04-4.69,4.05c-9.58,0.03-19.17,0.33-28.75,0.39c-3.85,0.02-5.56-1.97-5.43-5.98
			C643.9,993.2,643.75,986.59,643.75,979.98z"/>
		<path d="M432.1,974.77c0,4.91-0.07,9.83,0.02,14.74c0.11,5.58,3.56,8.46,9.63,8.19c5.7-0.25,8.72-3.69,8.6-9
			c-0.22-10.03-0.12-20.07-0.13-30.11c-0.01-3.53,1.66-5.56,5.31-5.78c3.22-0.2,6.01,1.24,5.95,4.33
			c-0.25,12.09,1.22,24.18-0.83,36.28c-1.37,8.12-7.24,11.05-13.61,12.92c-3.9,1.15-8.59,0.73-12.69-0.1
			c-9.36-1.89-13.37-7.8-13.73-18.38c-0.32-9.32,1-18.68-1.16-27.95c-1.09-4.65,2-6.87,6.05-6.96c3.88-0.08,6.92,1.51,6.68,6.45
			c-0.26,5.11-0.06,10.25-0.06,15.37C432.12,974.77,432.11,974.77,432.1,974.77z"/>
		<path d="M820.47,1005.39c-3.78-0.76-7.64-1.03-8.43-6.49c-0.65-4.45-3.76-5.14-8.48-5.73c-9.1-1.14-14.71,0.53-17.55,9.91
			c-0.79,2.6-5.06,3.08-7.97,1.76c-3.13-1.42-1.4-3.85-0.59-5.99c5.25-13.86,10.43-27.74,15.74-41.57c1-2.6,2.34-4.81,5.97-4.6
			c3.5,0.2,6.26,1.12,7.53,4.51c3.07,8.22,6.96,16.07,9.63,24.51c1.91,6.04,4.78,12.02,7.6,17.84
			C825.92,1003.67,824.53,1004.99,820.47,1005.39z M800.2,984.86c5.57,0.05,7.2-1.35,5.24-5.34c-1.34-2.72-2.49-5.19-2.34-8.26
			c0.08-1.67-0.98-2.71-2.65-3.05c-2.45-0.5-2.6,1.72-3.35,3.02c-1.06,1.84-0.07,4.05-1.18,6.11
			C792.75,983.25,793.75,984.8,800.2,984.86z"/>
		<path d="M714.61,978.43c0-6.62,0.15-13.25-0.05-19.87c-0.12-3.95,0.98-5.93,5.37-5.86c4.14,0.07,4.98,2.1,4.94,5.66
			c-0.11,10.04,0.39,20.11-0.19,30.12c-0.4,6.78,2.1,8.72,8.41,8.04c4.22-0.45,8.54,0.01,12.81-0.11c3.45-0.1,4.61,2.15,4.4,4.78
			c-0.2,2.53-1.6,5.03-4.84,4.63c-8.29-1.02-16.61-0.38-24.9-0.37c-4.37,0.01-6.19-1.29-6.01-5.87
			C714.82,992.54,714.61,985.48,714.61,978.43z"/>
		<path d="M319.22,855.05c0-3.21,0.04-6.42-0.02-9.63c-0.02-1.18,0.35-2.69-1.46-3.04c-1.59-0.31-2.19,0.74-2.79,1.98
			c-2.01,4.14-3.95,8.32-6.21,12.31c-1.87,3.31-4.46,5.34-8.21,2.21c-1.4-1.17-1.98-2.19-0.74-4.26
			c5.35-8.95,10.49-18.03,15.44-27.22c1.43-2.66,3.43-5.11,5.98-4.82c2.06,0.23,3.72,2.81,4.57,5.57
			c2.15,6.95,0.39,13.99,1.15,20.92c0.18,1.65-1.2,4.2,1.65,4.7c2.68,0.47,2.63-2.3,3.45-3.79c2.21-3.98,4.41-8,6.21-12.18
			c1.47-3.4,3.76-4.1,6.54-2.38c2.69,1.66,3.07,3.64,0.97,6.86c-5.38,8.26-10.14,16.93-14.93,25.55c-1.38,2.47-2.81,5.7-5.63,4.8
			c-2.91-0.93-6-3.19-5.92-7.33c0.07-3.42,0.01-6.85,0.01-10.27C319.27,855.05,319.24,855.05,319.22,855.05z"/>
		<path d="M750.36,876.97c-11.65,0.85-19.29-13.13-20.21-24.1c-0.79-9.47,10.47-19.09,21.01-19.58c9.54-0.45,21.06,12.6,21.14,24.54
			C772.36,867.31,761.16,876.99,750.36,876.97z M750.75,842.26c-7.64-0.04-11.76,3.78-11.8,10.92c-0.04,7.06,6.96,16.01,12.61,16.13
			c6.03,0.13,11.81-5.55,11.82-11.6C763.38,849.75,757.29,842.3,750.75,842.26z"/>
		<path d="M666.23,909c-3.52,0.17-4.94-0.69-5.58-3.35c-2.61-10.96-5.36-21.91-9.53-32.41c-1.23-3.09,1.04-4.28,2.61-4.79
			c7.76-2.48,15.64-4.55,23.51-6.68c2.3-0.62,3.62,1.11,4.63,2.7c1.36,2.14-0.8,3.28-2,3.99c-4.37,2.6-9.43,3.44-14.3,4.5
			c-3.04,0.66-5.82,0.77-4.54,4.87c1.09,3.51,3.39,5.75,7.18,3.73c3.62-1.94,7.79-1.9,11.34-3.71c2.78-1.42,4.31-0.66,5.55,1.91
			c1.56,3.22-0.87,4.17-2.96,4.95c-4.48,1.67-9.09,2.94-13.58,4.69c-5.68,2.21-1.77,5.07-1.41,7.56c0.52,3.51,2.66,3.78,5.61,2.25
			c4.31-2.23,9.07-3.21,13.79-4.16c2.93-0.59,5.51,0.98,5.77,3.64c0.24,2.41-2.11,3.78-4.82,3.98c-6.38,0.48-11.94,3.92-18.11,5.23
			C667.97,908.2,666.64,908.85,666.23,909z"/>
		<path d="M374.58,893.66c-8.88,0.4-19.48-7.37-19.33-13.57c0.06-2.63-1.78-6.64,2.59-7.35c3.88-0.63,5.88,2.75,6,5.85
			c0.21,5.27,4.07,6.03,7.55,7.16c2.68,0.87,5.88,0.8,7.23-2.28c1.08-2.46-1.15-4.18-2.81-5.68c-3.09-2.79-6.44-5.31-9.39-8.23
			c-3.59-3.55-5.36-7.85-2.1-12.46c3.23-4.59,7.24-8.09,13.59-5.84c5.96,2.1,12.14,3.68,14.59,10.74c0.89,2.56,2.23,5.14-0.59,6.74
			c-3.28,1.86-5.59-0.28-7.17-3.16c-1.1-1.99-1.54-4.32-4.07-5.38c-2.85-1.19-6.06-2.69-8.04,0.31c-1.82,2.76,0.98,5.05,3,6.75
			c3.01,2.53,6.78,3.85,9.22,7.45c2.84,4.2,3.31,8.13,1.08,12.39C383.59,891.55,379.88,894.06,374.58,893.66z"/>
		<path d="M572.12,896c0-3.64,0-7.27,0-10.91c0-2.35-0.32-5.25,2.98-5.31c3.33-0.06,5.64,2.19,5.78,5.49
			c0.29,7.09,0.17,14.21,0.18,21.31c0.02,12.42-13.24,20.35-24.85,15.24c-5.01-2.2-8.14-5.73-8.24-10.74
			c-0.16-8.3-2.19-16.45-1.59-24.8c0.2-2.8,0.56-4.39,3.87-4.19c2.85,0.17,5.15,0.45,5.14,4.08c-0.03,6.63-0.07,13.27,0.02,19.9
			c0.09,6.34,3.06,9.54,8.54,9.46c6.26-0.1,8.12-2.19,8.17-9.26C572.14,902.85,572.12,899.42,572.12,896z"/>
		<path d="M795.2,802.76c1.7,0.06,2.63,1.39,3.45,2.53c1.19,1.65,0.76,3.58-1.02,4.34c-3.83,1.66-5.71,5.55-9.38,7.49
			c-2.96,1.55-3.56,4.7-0.95,7.31c2.18,2.18,4.6,3.59,7.42,0.23c1.87-2.22,4.63-3.65,6.73-5.7c1.95-1.91,3.54-3,5.62-0.22
			c1.88,2.51,1.82,4.83-0.74,6.59c-3.45,2.36-8.57,3.79-9.24,8.01c-0.72,4.57,4.75,6.5,7.37,9.67c2.82,3.41-0.04,4.89-1.82,6.84
			c-2.18,2.39-4.19,1.63-5.88-0.52c-6.88-8.79-13.25-17.99-20.92-26.17c-1.62-1.72-1.56-4.09,0.39-5.67
			c5.88-4.77,11.88-9.39,17.84-14.06C794.42,803.16,794.81,802.99,795.2,802.76z"/>
		<path d="M438.31,877.35c-7.33-2.93-8.34,2.7-8.46,6.62c-0.21,7.11-4.4,13.13-4.44,20.22c-0.01,2.7-2.47,4.17-5.54,3.55
			c-3.64-0.73-3.85-3.84-2.85-5.94c3.27-6.9,2-14.92,5.92-21.66c2.55-4.38,0.98-7.5-4.26-8.3c-2.94-0.45-6.65-0.63-5.53-4.93
			c1.16-4.45,5.2-2.92,8.03-2.3c5.9,1.28,11.68,3.1,17.51,4.74c2.99,0.84,6.96,1.19,6.14,5.6
			C444.01,879.3,439.96,875.39,438.31,877.35z"/>
		<path d="M508.47,879.6c4.48-0.63,9.87,0.68,15.34,1.2c2.38,0.23,3.46,0.84,3.36,3.37c-0.09,2.46-0.72,4.21-3.51,4.29
			c-1.06,0.03-2.16,0.05-3.18-0.18c-4.43-0.98-6.49,1.02-6.13,5.26c0.66,7.69-1.49,15.18-1.37,22.82c0.05,3.26-1.73,5.68-4.9,5.25
			c-2.98-0.41-3.59-2.47-3.07-6.08c1.17-8.13-0.14-16.5,1.56-24.71c0.72-3.48-1.25-5.14-4.82-4.89c-1.27,0.09-2.56-0.02-3.84,0
			c-2.19,0.03-3.91-0.74-3.95-3.13c-0.05-2.4,1.62-3.23,3.83-3.22C500.99,879.61,504.19,879.6,508.47,879.6z"/>
		<path d="M628.02,873.23c3.64-0.16,5.43,0.58,5.63,3.35c0.18,2.56-0.91,4.25-3.59,4.17c-6.4-0.2-9,1.96-6.8,8.77
			c2.28,7.04,0.57,14.69,2.64,21.87c0.93,3.23-1.2,4.94-3.93,5.17c-2.96,0.25-4.67-1.85-4.86-4.73c-0.44-6.75-1.74-13.4-1.46-20.24
			c0.27-6.75-2.01-8.18-8.75-7.1c-2.6,0.42-5.94,1.13-6.46-3.02c-0.5-3.93,2.15-4.23,5.26-4.51
			C613.62,876.22,621.66,876.1,628.02,873.23z"/>
		<path d="M276.89,841c-2.51,0.15-3.68-1.5-4.71-3.07c-0.95-1.45-0.16-2.73,0.91-3.97c7.14-8.3,14.24-16.63,20.52-25.62
			c1.98-2.84,4.46-3.91,7.29-1.35c3,2.7,1.47,4.99-0.72,7.58c-6.66,7.87-13.12,15.9-19.49,24.01
			C279.55,840.03,278.64,841.2,276.89,841z"/>
		<path d="M460.52,910.28c1.79-9.84,2.71-19.86,2.64-30c-0.02-3,1.77-5.18,5.35-4.51c3.52,0.66,5.54,3.03,4.47,6.32
			c-3.04,9.34-2.66,19.05-3.52,28.6c-0.32,3.47-1.95,5.52-4.69,5.39C462.12,915.96,459.38,914.18,460.52,910.28z"/>
		<path d="M164.51,645.88c6.09-3.13,11.73-5.92,17.24-8.93c2.4-1.31,4.85-1.2,6,0.87c1.17,2.1,1.25,4.75-2.02,6.22
			c-6.67,3.01-13.19,6.35-19.79,9.54c-2.44,1.18-5.17,1.94-7.32,3.51c-2.61,1.91-5.21,3.58-7.61,0.64c-2.29-2.79-2.3-6.72-0.1-9.41
			c4.09-5.03,6.07-11.51,11.23-15.8c0.68-0.57,2.34-2.17,0.63-3.73c-1.31-1.18-2.64-1.06-4.07-0.2c-4.31,2.6-8.56,5.3-12.99,7.68
			c-2.52,1.35-4.57,0.86-6.32-2.02c-1.81-2.99-0.3-4.98,1.72-5.66c10.55-3.55,19.57-10.34,30.11-13.84
			c1.77-0.59,3.83-3.19,5.13-0.04c0.96,2.35,4.01,4.14,1.49,7.85c-3.9,5.73-7.29,11.81-12.08,16.88
			C163.93,641.35,163.15,643.22,164.51,645.88z"/>
		<path d="M115.8,375.09c9.05,1.53,17.52,2.96,25.99,4.4c1.24,0.21,2.48,0.71,3.7,0.65c3.35-0.14,7.07-0.06,7.78,3.74
			c0.73,3.9-3.05,6.65-5.86,7.39c-6.5,1.72-11.99,5.87-18.64,7.1c-1.31,0.24-3.6,0.73-3.35,3.12c0.28,2.75,2.52,1.59,3.99,1.81
			c5.17,0.79,10.37,1.41,15.54,2.24c2.26,0.36,5.22,0.67,4.59,3.95c-0.6,3.12-3.26,4.77-6.27,3.89
			c-10.15-2.94-20.92-1.65-31.05-4.85c-2.33-0.74-4.55-0.6-4.81-3.82c-0.24-2.94,0.89-5.2,3.34-6.34c5.11-2.4,10.39-4.45,15.62-6.58
			c1.34-0.55,2.79-0.8,4.14-1.33c1.63-0.64,3.49-1.79,3.19-3.51c-0.35-1.99-2.59-1.68-4.28-1.69c-4.85-0.03-9.79,0.55-14.41-1.46
			c-2.5-1.09-4.28-2.91-3.6-5.98C111.99,375.08,114.16,374.98,115.8,375.09z"/>
		<path d="M141.79,603.51c-11.9,1.2-19.82-9.86-19.72-19.46c0.15-14.2,9.2-20.77,24.24-21.48c10.2-0.49,18.83,9.55,18.81,21.24
			C165.11,595.05,155.11,603.49,141.79,603.51z M142.18,594.55c1.07,0,2.16,0.17,3.19-0.03c10.27-1.98,17.03-10.42,10.19-19.07
			c-4.25-5.38-9.81-4.47-15.59-2.84c-5.85,1.65-11.11,6.98-10.72,11.49C129.76,590.08,135.38,594.64,142.18,594.55z"/>
		<path d="M145.93,448.68c-0.24,4.06-2.16,5.95-5.17,7.13c-10.32,4.05-20.6,8.21-30.92,12.25c-2.45,0.96-5.24,2.48-7.05-0.89
			c-1.71-3.18,1.02-5.44,2.98-6.13c7.01-2.46,7.03-7.64,6.99-13.67c-0.03-4.25-1.14-6.88-5.18-8.18c-2.16-0.69-3.5-2.5-4.73-4.17
			c-1.01-1.38-0.96-3.25,0.21-4.79c1.22-1.61,2.46-0.73,3.9-0.18c11.74,4.45,23.54,8.74,35.26,13.23
			C144.76,444.27,146.3,446.36,145.93,448.68z M120.19,449.14c0.07,2.5,0.08,6.18,2.96,5.01c2.91-1.18,8.48-0.62,8.34-5.12
			c-0.12-3.8-5.2-3.25-8.02-4.19C120.15,443.74,120.32,447.07,120.19,449.14z"/>
		<path d="M207.5,678.91c1.12,4.1-2.87,5.84-4.9,8.65c-5.65,7.84-11.3,15.68-16.86,23.58c-0.97,1.38-1.94,3.76-3.53,2.01
			c-1.67-1.84-5.11-3.67-3.12-7.23c4.12-7.36,3.21-13.15-2.73-18.79c-2.26-2.15-4.79-1.43-7.22-1.4c-3.44,0.05-6.28-1.1-6.32-4.64
			c-0.04-3.7,3.46-2.64,5.84-3.13c9.42-1.93,18.81-4.06,28.2-6.13C203.94,670.29,207.45,672.47,207.5,678.91z M197.16,681.94
			c-0.18-1.16-1.04-2.76-2.2-2.02c-3.4,2.17-8.85,1.22-10.37,5.92c-0.92,2.84,2.18,4.32,4.1,5.77
			C189.65,692.33,196.98,684.01,197.16,681.94z"/>
		<path d="M140.29,491.14c-0.11-0.3-0.19-0.5-0.25-0.71c-1.03-3.62-2.7-8.39,2.99-8.54c5.72-0.15,3.84,5.43,4.05,8.84
			c0.34,5.68-0.4,11.38,2.04,16.89c1.23,2.78,0.31,5.48-3.29,5.98c-3.45,0.48-5.41-1.05-5.01-4.7c0.53-4.86-2.11-5.85-6.21-5.54
			c-7.61,0.58-15.34,0.42-22.8,1.77c-4.15,0.75-6.04-1.01-6.43-3.74c-0.46-3.23,2.41-4.19,5.53-4.43c8.61-0.68,17.19-1.8,25.81-2.43
			C139.31,494.34,139.73,492.85,140.29,491.14z"/>
		<path d="M227.86,706.42c2.18,0.46,3.53,2.26,4.65,3.95c1.58,2.39-1.06,3.42-2.3,4.46c-6.28,5.24-12.68,10.35-19.15,15.35
			c-3.6,2.79-4.42,5.22-0.3,8.36c2.51,1.92,4.57,4.45,6.78,6.75c2.01,2.09,2.61,5.07,0.5,6.69c-1.88,1.43-4.9,0.88-6.75-1.58
			c-4.04-5.35-7.88-10.88-12.29-15.91c-2.36-2.69-1.24-3.96,0.72-5.61c8.22-6.91,16.42-13.85,24.68-20.71
			C225.33,707.4,226.62,707.04,227.86,706.42z"/>
		<path d="M117.74,547.38c-2.95-0.19-5.01-0.77-5.25-4.34c-0.23-3.48,1.94-4.42,4.5-4.86c10.06-1.72,20.14-3.28,29.95-6.27
			c2.26-0.69,5.4-1.17,6.45,2.18c0.93,2.94-0.62,4.68-3.45,5.74C139.51,543.76,128.04,542.93,117.74,547.38z"/>
		<path d="M945.91,610.54c-8.12-3.64-18.92-5.57-29.07-9.44c-2-0.76-4.94-1-4.47-4.31c0.44-3.09,1.81-6.22,5.08-6.52
			c6.97-0.64,13.08-4.62,20.14-4.71c1.45-0.02,3.8,1.03,4.1-1.6c0.29-2.59-2.22-3.24-3.83-3.32c-4.95-0.26-9.36-2.37-14-3.59
			c-4.2-1.1-5.33-3.99-2.34-7.64c0.91-1.11,1.79-1.77,3.76-1.09c9.86,3.4,19.88,6.36,29.79,9.64c2.44,0.81,6.26,1.03,5.74,4.68
			c-0.48,3.39-2,7.25-6.32,7.44c-5.96,0.26-11.31,3.45-17.33,3.21c-2.39-0.09-5.24,0.45-5.4,3.09c-0.21,3.56,3.12,1.56,4.86,2.1
			c4.59,1.44,9.28,2.59,13.74,4.34c1.86,0.73,3.62,2.55,2.74,5.13C952.23,610.39,950.69,611.94,945.91,610.54z"/>
		<path d="M954.25,434.06c-4.2-0.28-11.18-2.11-14.55-9.52c-4.98-10.95-3.99-17.25,2.68-23.73c1.83-1.78,3.43-4.05,6.38-1.48
			c3.17,2.76,1.99,5.42-0.32,7.56c-1.86,1.73-2.68,3.53-2.86,5.96c-0.7,9.93,3.1,13.17,14.84,12.26
			c11.97-0.92,13.55-9.19,10.69-18.35c-0.71-2.26-2.78-2.56-4.77-2.16c-1.84,0.37-3.03,1.37-2.29,3.63
			c0.93,2.84,0.51,4.93-3.11,5.31c-3.46,0.36-4.49-1.82-4.88-4.48c-0.45-3.11,0.34-6.3-0.96-9.43c-0.36-0.86,0.78-3.04,1.81-3.66
			c9.33-5.59,18.5-1.11,20.93,9.91c0.93,4.24,3.33,8.13,1.84,12.84C976.21,429.74,970.13,434.07,954.25,434.06z"/>
		<path d="M980.29,460.49c0,12.92-8.09,21.17-20.63,21.06c-11.66-0.11-23.26-9.71-22.7-20.16c0.57-10.55,7.78-20.8,22.35-20.84
			C971.64,440.52,980.29,448.84,980.29,460.49z M959.12,449.48c-9.26,0-13.16,4.05-13.63,12.47c-0.41,7.35,6.47,9.82,15.17,10.51
			c7.3,0.58,11.96-4.45,11.97-11.4C972.65,454.14,967.21,449.48,959.12,449.48z"/>
		<path d="M947.72,525.26c13.21,0,22.33,7.88,22.3,19.27c-0.03,12.49-7.72,20.47-19.73,20.48c-13.96,0.01-23.81-8.19-23.86-19.87
			C926.38,534.1,935.85,525.26,947.72,525.26z M952.94,556.22c3.51,0.33,7.27-2.17,8.98-7.02c1.62-4.6,0.32-9.02-3.67-11.88
			c-3.53-2.54-7.54-4.66-12.14-4.32c-5.8,0.43-9.65,3.71-11.56,9.11c-1.65,4.65,0.29,8.49,3.92,11.12
			C942.12,555.87,946.69,555.93,952.94,556.22z"/>
		<path d="M870.73,707.46c2.17-0.16,3.12-1.93,4.28-3.4c2.6-3.31,5.24-6.59,7.74-9.98c1.68-2.28,3.43-1.02,4.87-0.06
			c1.9,1.27,1.98,3.01,0.46,4.92c-2.61,3.29-4.77,6.99-7.64,10.03c-4.1,4.33,0.77,5.11,2.45,7.12c2.58,3.07,4.92,1.78,6.79-0.78
			c2.72-3.73,5.19-7.65,7.84-11.43c1.44-2.05,3.02-3.41,5.71-1.47c2.41,1.75,2.36,3.91,0.95,5.8c-4.79,6.42-9.92,12.59-14.74,18.99
			c-1.94,2.58-3.9,2.03-5.93,0.59c-9.07-6.4-18.09-12.88-27.12-19.34c-2.15-1.54-2.35-3.13-0.66-5.37
			c4.55-6.04,8.8-12.31,13.36-18.34c1.33-1.76,3.1-4.24,5.76-2.12c2.5,1.99,1.79,4.32-0.1,6.64c-2.65,3.26-4.94,6.81-7.61,10.06
			c-1.28,1.55-1.38,3.12-0.9,4.76C866.86,706.19,869.19,706.3,870.73,707.46z"/>
		<path d="M930.96,653.57c-1.56,0.2-2.82-0.54-4.21-1.11c-8.7-3.58-17.5-6.91-26.15-10.58c-2.25-0.95-6.19-1.53-4.59-5.45
			c1.43-3.49,4.66-4.02,8.1-2.87c0.79,0.27,1.52,0.71,2.28,1.07c6.96,3.28,6.96,3.28,9.89-4.35c3.2-8.34,3.15-8.22-4.96-11.47
			c-2.61-1.04-6.94-1.37-4.71-6.31c1.81-4.01,4.29-2.96,7.51-1.61c9.05,3.81,18.29,7.19,27.45,10.74c3.2,1.24,5.18,3.57,3.67,6.88
			c-1.35,2.96-4.08,2.43-6.55,0.92c-0.53-0.33-1.16-0.5-1.74-0.74c-10.29-4.31-12.91-3.02-16.08,7.85c-0.61,2.09-0.05,3.41,2.1,4.3
			c3.46,1.43,6.77,3.23,10.21,4.71c2.1,0.9,4.22,1.95,3.26,4.54C935.6,652.3,933.77,653.97,930.96,653.57z"/>
		<path d="M906.02,690.88c-11.75-0.62-21.61-6.39-25.26-16.96c-3-8.69,5.17-22.2,16.89-22.8c2.12-0.11,3.82,0.44,4.26,2.84
			c0.35,1.9-0.26,3.17-2.19,3.96c-2.33,0.95-4.55,2.17-6.76,3.38c-2.1,1.15-3.48,2.64-3.94,5.32c-1.18,6.85,2.41,11.49,12.43,15.28
			c5.64,2.13,10.15,0.2,13.51-5.23c2.4-3.88,0.33-6.56-2.09-8.87c-3.49-3.33-0.37-4.83,1.52-6.47c2.22-1.94,4.02-1.85,6.13,1
			c5.34,7.22,3.24,14.01-0.63,20.62C916.63,688.48,910.78,689.87,906.02,690.88z"/>
		<path d="M937.27,393.96c-2.02-2.09-3.82-4.06-1.87-7.3c2.12-3.54,5.42-5.95,8.22-8.83c2.85-2.93,3.18-4.7-1.42-5.92
			c-3.61-0.96-7.27-2.18-10.48-4.02c-2.53-1.46-5-4.6-3.42-7.35c1.21-2.1,4.46-0.43,6.96,0.27c7.38,2.09,14.27,6.15,22.42,5.42
			c3.22-0.29,6.13-0.82,9.07-2.26c2.49-1.22,4.9-0.7,6.01,2.57c0.92,2.72-0.16,5.41-2.3,5.53c-13.92,0.78-20.85,11.61-29.64,19.82
			C939.95,392.72,938.68,393.16,937.27,393.96z"/>
		<path d="M854.45,714.07c0.22,1.44-0.5,2.46-1.51,3.33c-5.48,4.71-3.51,8.56,1.25,12.33c5.07,4.02,10.04,8.17,14.93,12.4
			c2.39,2.07,4.99,3.94,1.58,7.8c-3.57,4.04-5.22,1.18-7.53-1.02c-5.71-5.4-11.63-10.58-17.2-16.12c-2.82-2.8-5.13-2.9-7.28,0.27
			c-1.11,1.63-2.31,2.96-4.1,3.66c-2.26,0.89-3.53-0.69-4.85-2.12c-1.56-1.69-0.12-2.66,0.85-3.73
			c5.84-6.45,11.83-12.77,17.47-19.39c1.51-1.77,2.94-1.48,4.43-1.04C854.03,710.93,854.63,712.4,854.45,714.07z"/>
		<path d="M977.59,500.51c0,0.86,0.36,3.27-0.06,5.54c-2.37,12.68-2.47,13-19.61,11.24c-6.38-0.65-13.02-0.62-19.16-3.27
			c-2.29-0.99-6.61,0.09-5.59-4.1c0.89-3.66,4.02-5.91,8.33-5.1c7.19,1.36,14.45,2.43,21.54,4.21c4.66,1.17,6.09-1.4,6.91-4.78
			c0.78-3.24,1.21-6.63,1.32-9.96c0.09-2.65,0.71-3.88,3.61-3.73c3.42,0.18,3.74,1.9,3.04,4.66
			C977.62,496.43,977.74,497.75,977.59,500.51z"/>
	</g>
</g>
</svg>
